<?xml version="1.0" standalone="no"?>
<!DOCTYPE svg PUBLIC "-//W3C//DTD SVG 1.1//EN" "http://www.w3.org/Graphics/SVG/1.1/DTD/svg11.dtd" >
<svg xmlns="http://www.w3.org/2000/svg" xmlns:xlink="http://www.w3.org/1999/xlink" version="1.1">
<metadata>
Created by FontForge 20170731 at Fri Jan  1 02:30:17 1904
 By Aleksey,,,
Copyright 2013 (c) Rick Banks / Face37. All rights reserved.
</metadata>
<defs>
<font id="F37Ginger-Italic" horiz-adv-x="626" >
  <font-face 
    font-family="F37 Ginger"
    font-weight="400"
    font-style="italic"
    font-stretch="normal"
    units-per-em="1000"
    panose-1="2 0 5 3 3 0 0 2 0 4"
    ascent="800"
    descent="-200"
    x-height="475"
    cap-height="740"
    bbox="-306 -262 1453 1003"
    underline-thickness="50"
    underline-position="-175"
    slope="-10"
    unicode-range="U+0020-FB02"
  />
<missing-glyph horiz-adv-x="729" 
d="M729 0h-529l130 740h529zM650 102l94 535h-335l-94 -535h335z" />
    <glyph glyph-name=".notdef" horiz-adv-x="729" 
d="M729 0h-529l130 740h529zM650 102l94 535h-335l-94 -535h335z" />
    <glyph glyph-name=".null" horiz-adv-x="0" 
 />
    <glyph glyph-name="nonmarkingreturn" horiz-adv-x="333" 
 />
    <glyph glyph-name="controlHT" unicode=" " horiz-adv-x="270" 
 />
    <glyph glyph-name="exclam" unicode="!" horiz-adv-x="320" 
d="M329 203h-50l24 280l46 257h100l-46 -257zM266 -6q-23 0 -37.5 15t-14.5 38q0 29 22 49.5t52 20.5q23 0 37.5 -14.5t14.5 -37.5q0 -29 -22 -50t-52 -21z" />
    <glyph glyph-name="quotedbl" unicode="&#x22;" horiz-adv-x="434" 
d="M426 484h-76l30 256h107zM603 484h-76l30 256h107z" />
    <glyph glyph-name="numbersign" unicode="#" horiz-adv-x="612" 
d="M503 66h-81l57 179h-143l-58 -179h-81l57 179h-108l14 80h120l43 136h-114l14 81h125l56 175h81l-55 -175h143l56 175h81l-55 -175h95l-14 -80h-107l-43 -137h100l-14 -80h-111zM505 325l43 137h-143l-43 -137h143z" />
    <glyph glyph-name="dollar" unicode="$" horiz-adv-x="570" 
d="M120 112l77 71q56 -90 131 -101l46 260q-68 30 -106 67.5t-38 104.5q0 89 58.5 153.5t156.5 80.5l13 73h89l-12 -70q84 -9 145 -68l-71 -78q-40 40 -91 50l-42 -238q68 -29 106.5 -66.5t38.5 -106.5q0 -95 -61.5 -163.5t-158.5 -87.5l-13 -73h-89l12 69q-134 13 -191 123
zM516 218q0 52 -60 86l-38 -212q45 17 71.5 51.5t26.5 74.5zM336 541q0 -54 57 -86l35 197q-44 -12 -68 -41.5t-24 -69.5z" />
    <glyph glyph-name="percent" unicode="%" horiz-adv-x="911" 
d="M1043 199q0 -85 -69 -149t-156 -64q-68 0 -113.5 46.5t-45.5 114.5q0 85 69 149t156 64q68 0 113.5 -46.5t45.5 -114.5zM832 67q49 0 86.5 36.5t37.5 85.5q0 37 -24.5 62.5t-62.5 25.5q-49 0 -86 -35.5t-37 -84.5q0 -38 24 -64t62 -26zM680 596q0 -85 -69 -149t-156 -64
q-68 0 -113.5 46.5t-45.5 114.5q0 85 69 149t156 64q68 0 113.5 -46.5t45.5 -114.5zM469 465q49 0 86.5 36.5t37.5 84.5q0 38 -24.5 63.5t-62.5 25.5q-49 0 -86 -36t-37 -85q0 -38 24 -63.5t62 -25.5zM445 0h-87l537 740h87z" />
    <glyph glyph-name="ampersand" unicode="&#x26;" horiz-adv-x="647" 
d="M686 0h-297q-99 0 -155 50t-56 132q0 71 39.5 128t115.5 83q-74 38 -74 135q0 90 72 157.5t174 67.5q79 0 126 -48l-64 -74q-33 31 -80 31q-52 0 -89.5 -35.5t-37.5 -88.5q0 -43 27.5 -71t76.5 -28h113l21 119h102l-21 -119h84l-17 -96h-84l-43 -247h84zM516 95l44 248
h-107q-32 0 -60 -6.5t-54 -22t-41 -44t-15 -68.5q0 -52 36.5 -79.5t95.5 -27.5h101z" />
    <glyph glyph-name="quotesingle" unicode="'" horiz-adv-x="257" 
d="M426 484h-76l30 256h107z" />
    <glyph glyph-name="parenleft" unicode="(" horiz-adv-x="371" 
d="M428 -125l-60 -76q-80 52 -135 152.5t-55 236.5q0 85 22.5 164t57.5 138.5t83.5 111.5t96 87.5t98.5 62.5l33 -77q-49 -27 -96 -68t-91.5 -99.5t-72 -138t-27.5 -166.5q0 -114 44 -200.5t102 -127.5z" />
    <glyph glyph-name="parenright" unicode=")" horiz-adv-x="371" 
d="M10 -201l-34 76q47 26 93.5 67t92.5 100t74 139.5t28 168.5q0 113 -44 199t-103 126l61 77q79 -51 134 -152t55 -237q0 -85 -22 -164t-57.5 -138.5t-83.5 -111.5t-95.5 -87.5t-98.5 -62.5z" />
    <glyph glyph-name="asterisk" unicode="*" horiz-adv-x="416" 
d="M557 464l-91 61l-16 -106h-72l22 107l-105 -69l-25 60l108 60l-89 52l44 62l88 -57l15 106h73l-22 -106l103 66l27 -60l-107 -58l94 -56z" />
    <glyph glyph-name="plus" unicode="+" horiz-adv-x="630" 
d="M478 80h-93l39 219h-218l16 93h218l39 219h93l-39 -219h219l-16 -93h-219z" />
    <glyph glyph-name="comma" unicode="," horiz-adv-x="324" 
d="M182 -122l9 50q20 3 41 22t28 45q-4 -1 -12 -1q-21 0 -35 15t-14 37q0 29 22 50t53 21q51 0 51 -65q0 -58 -42.5 -115.5t-100.5 -58.5z" />
    <glyph glyph-name="hyphen" unicode="-" horiz-adv-x="417" 
d="M495 224h-287l16 92h287z" />
    <glyph glyph-name="period" unicode="." horiz-adv-x="323" 
d="M270 -6q-23 0 -37.5 15t-14.5 38q0 29 22 49.5t52 20.5q23 0 37 -14.5t14 -36.5q0 -30 -21.5 -51t-51.5 -21z" />
    <glyph glyph-name="slash" unicode="/" horiz-adv-x="507" 
d="M100 0h-96l536 740h96z" />
    <glyph glyph-name="zero" unicode="0" horiz-adv-x="586" 
d="M712 486l-38 -216q-21 -122 -94.5 -202.5t-193.5 -80.5q-118 0 -164 79t-24 204l38 216q20 113 95.5 190t189.5 77q111 0 161 -75.5t30 -191.5zM574 277l34 195q14 81 -9 134t-95 53q-71 0 -113.5 -52t-57.5 -135l-34 -195q-7 -53 -6.5 -96.5t28 -72t81.5 -28.5
q76 0 115.5 52t56.5 145z" />
    <glyph glyph-name="one" unicode="1" horiz-adv-x="375" 
d="M398 0h-102l113 643h-123l17 97h225z" />
    <glyph glyph-name="two" unicode="2" horiz-adv-x="560" 
d="M524 0h-452l17 97l254 215q103 87 142.5 138.5t39.5 109.5q0 48 -28 77t-77 29q-53 0 -92 -33t-59 -95h-99q29 103 99 159t168 56q87 0 140.5 -46.5t53.5 -127.5q0 -80 -46 -147.5t-135 -143.5l-226 -192h317z" />
    <glyph glyph-name="three" unicode="3" horiz-adv-x="597" 
d="M409 80q62 0 109.5 40.5t47.5 119.5q0 55 -35.5 82.5t-101.5 27.5l16 94h35q56 0 94 37.5t38 90.5q0 40 -24.5 65t-66.5 25q-52 0 -86.5 -36t-44.5 -89h-101q19 93 85.5 154.5t164.5 61.5q82 0 129 -46.5t47 -119.5q0 -62 -32.5 -112t-92.5 -78q84 -41 84 -143
q0 -114 -82.5 -190.5t-197.5 -76.5q-101 0 -154 64t-39 163h102q-7 -63 21 -98.5t85 -35.5z" />
    <glyph glyph-name="four" unicode="4" horiz-adv-x="596" 
d="M532 0h-100l22 126h-340l16 89l429 525h103l-92 -522h76l-16 -92h-76zM470 218l64 362h-1l-291 -362h228z" />
    <glyph glyph-name="five" unicode="5" horiz-adv-x="591" 
d="M692 646h-260l-63 -177q51 25 111 25q91 0 145.5 -59t54.5 -150q0 -124 -90 -211t-212 -87q-100 0 -159 64.5t-54 163.5h102q-1 -55 30 -95t95 -40q79 0 132.5 56t53.5 137q0 58 -34 94.5t-93 36.5q-80 0 -137 -53l-65 54l117 335h347z" />
    <glyph glyph-name="six" unicode="6" horiz-adv-x="582" 
d="M245 391l246 349h110l-198 -284q34 13 68 13q82 0 136.5 -60t54.5 -146q0 -111 -88.5 -193.5t-202.5 -82.5q-90 0 -149.5 59t-59.5 146q0 44 19 89.5t64 109.5zM441 380q-70 0 -125 -52t-55 -120q0 -55 35.5 -92t91.5 -37q69 0 122.5 52t53.5 121q0 54 -34.5 91t-88.5 37
z" />
    <glyph glyph-name="seven" unicode="7" horiz-adv-x="530" 
d="M254 0h-110l409 643h-348l17 97h455l-17 -97z" />
    <glyph glyph-name="eight" unicode="8" horiz-adv-x="628" 
d="M640 452q74 -63 74 -172q0 -118 -93.5 -205.5t-214.5 -87.5q-95 0 -156.5 63.5t-61.5 156.5q0 74 40.5 138.5t108.5 107.5q-23 35 -23 85q0 86 69 150.5t158 64.5q70 0 115 -46.5t45 -115.5q0 -76 -61 -139zM615 268q0 59 -37.5 99.5t-97.5 40.5q-76 0 -134 -57t-58 -132
q0 -59 37.5 -99.5t96.5 -40.5q76 0 134.5 57t58.5 132zM561 492q40 37 40 87q0 36 -20.5 59t-55.5 23q-46 0 -79 -34t-33 -80q0 -33 17 -55q33 9 64 9q29 0 67 -9z" />
    <glyph glyph-name="nine" unicode="9" horiz-adv-x="582" 
d="M433 0h-110l198 283q-31 -12 -64 -12q-85 0 -140 59.5t-55 145.5q0 111 88 194t203 83q90 0 149.5 -59t59.5 -147q0 -43 -18 -86.5t-65 -111.5zM663 531q0 55 -36 92.5t-91 37.5q-69 0 -122.5 -52t-53.5 -121q0 -54 34 -91t89 -37q70 0 125 51.5t55 119.5z" />
    <glyph glyph-name="colon" unicode=":" horiz-adv-x="323" 
d="M270 -6q-23 0 -37.5 15t-14.5 38q0 29 22 49.5t52 20.5q23 0 37 -14.5t14 -36.5q0 -30 -21.5 -51t-51.5 -21zM333 351q-23 0 -37.5 15t-14.5 38q0 29 22 50t52 21q23 0 37 -15t14 -37q0 -30 -21.5 -51t-51.5 -21z" />
    <glyph glyph-name="semicolon" unicode=";" horiz-adv-x="324" 
d="M314 351q-23 0 -37.5 15t-14.5 38q0 29 22 50t52 21q23 0 37 -15t14 -37q0 -30 -21.5 -51t-51.5 -21zM182 -122l9 50q20 3 41 22t28 45q-4 -1 -12 -1q-21 0 -35 15t-14 37q0 29 22 50t53 21q51 0 51 -65q0 -58 -42.5 -115.5t-100.5 -58.5z" />
    <glyph glyph-name="less" unicode="&#x3c;" horiz-adv-x="453" 
d="M487 71l-82 -65l-283 340l403 340l57 -66l-327 -274z" />
    <glyph glyph-name="equal" unicode="=" horiz-adv-x="629" 
d="M736 409h-519l16 93h519zM697 190h-519l16 93h519z" />
    <glyph glyph-name="greater" unicode="&#x3e;" horiz-adv-x="453" 
d="M567 346l-402 -340l-59 65l328 275l-231 274l81 66z" />
    <glyph glyph-name="question" unicode="?" horiz-adv-x="538" 
d="M384 -6q-23 0 -37.5 15t-14.5 38q0 29 21.5 49.5t51.5 20.5q23 0 38 -14.5t15 -37.5q0 -29 -22 -50t-52 -21zM470 196h-100l12 68q6 32 17 56.5t22 39t33.5 29.5t35 21t42.5 19q63 28 92 55.5t29 80.5q0 44 -28 68.5t-74 24.5q-57 0 -93 -35.5t-46 -93.5h-96
q16 97 86 160.5t171 63.5q84 0 133.5 -47t49.5 -126q0 -48 -13 -84t-41 -61.5t-53.5 -41t-68.5 -35.5q-48 -22 -70 -42t-29 -58z" />
    <glyph glyph-name="at" unicode="@" horiz-adv-x="965" 
d="M759 -116l33 -64q-139 -82 -275 -82q-160 0 -264.5 100t-104.5 272q0 101 32 188t85.5 149t123.5 106t146 65.5t152 21.5q148 0 250.5 -86.5t102.5 -239.5q0 -133 -71.5 -236.5t-173.5 -103.5q-46 0 -72 24t-28 65q-67 -77 -170 -77q-76 0 -119.5 48.5t-43.5 122.5
q0 100 69 171t170 71q86 0 127 -62l10 55h89l-47 -265q-11 -66 36 -66q52 0 91 70.5t39 156.5q0 115 -72.5 189.5t-197.5 74.5q-76 0 -151 -26.5t-140 -77t-105 -136t-40 -192.5q0 -139 83 -218.5t216 -79.5q117 0 220 62zM699 212q0 46 -28.5 76.5t-76.5 30.5
q-63 0 -103.5 -43.5t-40.5 -106.5q0 -46 26 -75t73 -29q64 0 107 43.5t43 103.5z" />
    <glyph glyph-name="A" unicode="A" horiz-adv-x="698" 
d="M698 0h-112l-35 173h-340l-97 -173h-110l421 740h112zM530 269l-70 347l-196 -347h266z" />
    <glyph glyph-name="B" unicode="B" horiz-adv-x="599" 
d="M383 0h-213l130 740h205q104 0 159.5 -42t55.5 -119q0 -141 -137 -189q53 -13 79.5 -53t26.5 -95q0 -81 -43 -137t-110 -80.5t-153 -24.5zM349 435h117q65 0 107 28t42 94q0 87 -122 87h-107zM289 96h108q87 0 138.5 33.5t51.5 107.5q0 102 -149 102h-106z" />
    <glyph glyph-name="C" unicode="C" horiz-adv-x="715" 
d="M737 164l55 -67q-133 -110 -286 -110q-140 0 -232 93.5t-92 233.5q0 87 38 168.5t101 140t147 94t173 35.5q165 0 257 -116l-84 -64q-67 87 -187 87q-133 0 -237 -101t-104 -229q0 -104 67 -176.5t169 -72.5q114 0 215 84z" />
    <glyph glyph-name="D" unicode="D" horiz-adv-x="718" 
d="M373 0h-203l130 740h204q153 0 245.5 -83t92.5 -226q0 -128 -63.5 -227.5t-170 -151.5t-235.5 -52zM289 96h95q154 0 254.5 82t100.5 241q0 114 -75 169t-196 55h-83z" />
    <glyph glyph-name="E" unicode="E" horiz-adv-x="570" 
d="M602 0h-432l130 740h432l-17 -97h-330l-36 -209h274l-17 -96h-274l-43 -242h330z" />
    <glyph glyph-name="F" unicode="F" horiz-adv-x="552" 
d="M272 0h-102l130 740h435l-17 -97h-333l-36 -209h276l-17 -96h-276z" />
    <glyph glyph-name="G" unicode="G" horiz-adv-x="823" 
d="M924 412l-11 -64q-27 -160 -138.5 -260.5t-266.5 -100.5q-144 0 -235 92.5t-91 232.5q0 118 64.5 220t171 161.5t224.5 59.5q169 0 265 -120l-77 -71q-32 48 -86.5 72.5t-116.5 24.5q-136 0 -239 -100.5t-103 -235.5q0 -105 66 -174t174 -69q101 0 178.5 60t103.5 176
h-263l17 96h363z" />
    <glyph glyph-name="H" unicode="H" horiz-adv-x="774" 
d="M774 0h-102l60 342h-400l-60 -342h-102l130 740h102l-53 -302h400l53 302h102z" />
    <glyph glyph-name="I" unicode="I" horiz-adv-x="272" 
d="M272 0h-102l130 740h102z" />
    <glyph glyph-name="J" unicode="J" horiz-adv-x="267" 
d="M-160 -218h-6l17 94h7q40 0 67 11.5t43 37.5t24.5 53.5t16.5 74.5l121 687h103l-120 -680q-8 -46 -13 -69t-17 -54t-29 -55q-71 -100 -214 -100z" />
    <glyph glyph-name="K" unicode="K" horiz-adv-x="627" 
d="M709 0h-132l-248 322l-57 -322h-102l130 740h102l-58 -332l343 332h126l-391 -370z" />
    <glyph glyph-name="L" unicode="L" horiz-adv-x="558" 
d="M620 0h-450l130 740h102l-113 -644h348z" />
    <glyph glyph-name="M" unicode="M" horiz-adv-x="902" 
d="M902 0h-103l108 610l-277 -323h-90l-160 323l-108 -610h-102l130 740h139l165 -343l289 343h139z" />
    <glyph glyph-name="N" unicode="N" horiz-adv-x="825" 
d="M825 0h-106l-340 606l-107 -606h-102l130 740h132l321 -569l100 569h102z" />
    <glyph glyph-name="O" unicode="O" horiz-adv-x="838" 
d="M967 426q0 -117 -65 -219t-170.5 -161t-223.5 -59q-142 0 -234 93t-92 233q0 116 63.5 217.5t170 162t226.5 60.5q143 0 234 -93.5t91 -233.5zM524 80q135 0 237.5 99t102.5 233q0 105 -66.5 176t-172.5 71q-135 0 -237.5 -100.5t-102.5 -232.5q0 -105 67 -175.5
t172 -70.5z" />
    <glyph glyph-name="P" unicode="P" horiz-adv-x="606" 
d="M272 0h-102l130 740h225q106 0 166.5 -50.5t60.5 -144.5q0 -130 -83 -206.5t-228 -76.5h-123zM335 359h121q88 0 140 42t52 126q0 116 -142 116h-121z" />
    <glyph glyph-name="Q" unicode="Q" horiz-adv-x="831" 
d="M914 0q-259 -1 -407 -1q-140 0 -231.5 89.5t-91.5 228.5q0 115 63 216t169.5 160.5t227.5 59.5q143 0 234 -92t91 -232q0 -215 -201 -333h163zM866 416q0 105 -66.5 174t-171.5 69q-137 0 -239 -99t-102 -231q0 -104 67.5 -170t173.5 -66q137 0 237.5 93.5t100.5 229.5z
" />
    <glyph glyph-name="R" unicode="R" horiz-adv-x="644" 
d="M704 0h-117l-131 322h-127l-57 -322h-102l130 740h272q100 0 156.5 -42t56.5 -128q0 -102 -56 -164.5t-160 -77.5zM346 419h169q79 0 122.5 30t43.5 103q0 91 -127 91h-169z" />
    <glyph glyph-name="S" unicode="S" horiz-adv-x="538" 
d="M80 112l77 71q29 -47 65.5 -75t91.5 -28q69 0 115.5 42t46.5 96q0 37 -29.5 63t-71.5 44t-84 38t-71.5 58.5t-29.5 92.5q0 103 74.5 171t195.5 68q107 0 180 -70l-71 -78q-53 54 -130 54q-66 0 -104.5 -33t-38.5 -85q0 -38 29.5 -64t71 -43t83.5 -37t71.5 -58.5
t29.5 -94.5q0 -111 -80.5 -184t-199.5 -73q-73 0 -131 32t-90 93z" />
    <glyph glyph-name="T" unicode="T" horiz-adv-x="614" 
d="M492 0h-103l113 643h-236l17 97h574l-17 -97h-235z" />
    <glyph glyph-name="U" unicode="U" horiz-adv-x="787" 
d="M797 363l66 377h103l-73 -413q-29 -164 -130 -252t-243 -88t-212 88t-41 252l73 413h102l-66 -377q-50 -283 160 -283q211 0 261 283z" />
    <glyph glyph-name="V" unicode="V" horiz-adv-x="714" 
d="M549 0h-105l-164 740h113l126 -613l343 613h112z" />
    <glyph glyph-name="W" unicode="W" horiz-adv-x="1023" 
d="M922 0h-103l-70 560l-267 -560h-102l-100 740h112l64 -594l278 594h94l67 -594l276 594h112z" />
    <glyph glyph-name="X" unicode="X" horiz-adv-x="658" 
d="M658 0h-121l-132 267l-224 -267h-121l301 358l-186 382h121l141 -291l245 291h121l-321 -382z" />
    <glyph glyph-name="Y" unicode="Y" horiz-adv-x="644" 
d="M509 0h-102l58 333l-191 407h118l142 -306l253 306h116l-336 -406z" />
    <glyph glyph-name="Z" unicode="Z" horiz-adv-x="658" 
d="M655 0h-575l17 96l541 547h-434l17 97h563l-17 -97l-540 -547h445z" />
    <glyph glyph-name="bracketleft" unicode="[" horiz-adv-x="321" 
d="M299 -202h-251l166 942h251l-16 -91h-149l-134 -762h149z" />
    <glyph glyph-name="backslash" unicode="\" horiz-adv-x="507" 
d="M637 0h-96l-277 740h96z" />
    <glyph glyph-name="bracketright" unicode="]" horiz-adv-x="321" 
d="M199 -202h-251l16 89h149l134 762h-149l16 91h251z" />
    <glyph glyph-name="asciicircum" unicode="^" horiz-adv-x="562" 
d="M680 336h-100l-91 316l-201 -316h-100l265 404h104z" />
    <glyph glyph-name="underscore" unicode="_" horiz-adv-x="558" 
d="M529 -81h-523l14 81h523z" />
    <glyph glyph-name="grave" unicode="`" horiz-adv-x="358" 
d="M523 542l-193 112l61 84l190 -120z" />
    <glyph glyph-name="a" unicode="a" 
d="M623 0h-96l9 56q-70 -69 -171 -69q-93 0 -152 60.5t-59 150.5q0 117 90.5 201.5t208.5 84.5q98 0 147 -70l10 61h96zM569 258q0 57 -36.5 96t-95.5 39q-75 0 -131 -54t-56 -128q0 -58 36.5 -96t94.5 -38q76 0 132 54.5t56 126.5z" />
    <glyph glyph-name="b" unicode="b" 
d="M256 0h-96l130 740h96l-57 -326q71 70 171 70q92 0 151.5 -60.5t59.5 -151.5q0 -116 -89.5 -200.5t-208.5 -84.5q-100 0 -147 69zM298 211q0 -57 35 -95.5t95 -38.5q75 0 131 53.5t56 128.5q0 57 -36.5 95.5t-94.5 38.5q-75 0 -130.5 -54t-55.5 -128z" />
    <glyph glyph-name="c" unicode="c" horiz-adv-x="528" 
d="M528 152l72 -47q-43 -54 -106 -86t-129 -32q-91 0 -150 61.5t-59 151.5q0 113 90.5 198.5t206.5 85.5q66 0 116.5 -31.5t74.5 -85.5l-89 -46q-14 33 -45.5 52.5t-72.5 19.5q-73 0 -129 -55.5t-56 -126.5q0 -56 37 -95t94 -39q87 0 145 75z" />
    <glyph glyph-name="d" unicode="d" 
d="M623 0h-96l9 56q-70 -69 -171 -69q-93 0 -152 60.5t-59 150.5q0 117 90.5 201.5t208.5 84.5q98 0 147 -70l57 326h96zM569 258q0 57 -36.5 96t-95.5 39q-75 0 -131 -54t-56 -128q0 -58 36.5 -96t94.5 -38q76 0 132 54.5t56 126.5z" />
    <glyph glyph-name="e" unicode="e" horiz-adv-x="563" 
d="M636 203h-389q0 -56 36 -92.5t96 -36.5q87 0 144 65l59 -52q-41 -47 -99.5 -73.5t-119.5 -26.5q-92 0 -150.5 60t-58.5 151q0 113 87 199.5t204 86.5q91 0 147 -61t56 -150q0 -29 -12 -70zM264 279h290q0 50 -34.5 83.5t-89.5 33.5q-54 0 -99 -32.5t-67 -84.5z" />
    <glyph glyph-name="f" unicode="f" horiz-adv-x="332" 
d="M269 0h-97l68 384h-70l16 91h70l19 110q13 72 56 113.5t118 41.5q42 0 77 -11l-15 -86q-23 7 -56 7q-39 0 -58.5 -21.5t-29.5 -75.5l-14 -78h118l-16 -91h-118z" />
    <glyph glyph-name="g" unicode="g" 
d="M506 22l6 34q-70 -69 -171 -69q-93 0 -152 60.5t-59 150.5q0 117 90 201.5t208 84.5q98 0 147 -70l11 61h96l-77 -436q-12 -68 -37.5 -121t-56 -84.5t-68.5 -52t-72 -27.5t-69 -7q-71 0 -122.5 30.5t-75.5 85.5l96 38q34 -64 116 -64q69 0 121 43.5t69 141.5zM544 258
q0 57 -36.5 96t-95.5 39q-75 0 -130.5 -54t-55.5 -128q0 -58 36.5 -96t94.5 -38q75 0 131 54.5t56 126.5z" />
    <glyph glyph-name="h" unicode="h" horiz-adv-x="580" 
d="M590 0h-97l44 249q26 144 -91 144q-121 0 -147 -151l-43 -242h-96l130 740h96l-55 -316q63 60 148 60q89 0 133 -54t25 -161z" />
    <glyph glyph-name="i" unicode="i" horiz-adv-x="257" 
d="M257 0h-97l84 475h97zM309 569q-23 0 -37.5 15t-14.5 38q0 29 22 50t52 21q23 0 37 -15t14 -37q0 -30 -21.5 -51t-51.5 -21z" />
    <glyph glyph-name="j" unicode="j" horiz-adv-x="257" 
d="M167 -253h-97l128 728h97zM264 569q-23 0 -37.5 15t-14.5 38q0 29 22 50t52 21q23 0 37 -15t14 -37q0 -30 -21.5 -51t-51.5 -21z" />
    <glyph glyph-name="k" unicode="k" horiz-adv-x="512" 
d="M584 0h-126l-162 227l-40 -227h-96l130 740h96l-81 -461l218 196h127l-248 -218z" />
    <glyph glyph-name="l" unicode="l" horiz-adv-x="270" 
d="M370 78l-15 -84q-30 -7 -54 -7q-59 0 -86.5 34.5t-16.5 99.5l109 619h96l-103 -589q-7 -40 2.5 -57t43.5 -17q15 0 24 1z" />
    <glyph glyph-name="m" unicode="m" horiz-adv-x="863" 
d="M873 0h-96l44 249q13 73 -3 108.5t-70 35.5q-113 0 -140 -151l-43 -242h-97l44 249q13 74 -3 109t-70 35q-113 0 -140 -151l-43 -242h-96l84 475h96l-9 -51q65 60 140 60q111 0 137 -88q73 88 173 88q83 0 120.5 -53.5t18.5 -161.5z" />
    <glyph glyph-name="n" unicode="n" horiz-adv-x="580" 
d="M590 0h-97l44 249q26 144 -91 144q-121 0 -147 -151l-43 -242h-96l84 475h96l-9 -51q63 60 148 60q89 0 133 -54t25 -161z" />
    <glyph glyph-name="o" unicode="o" horiz-adv-x="580" 
d="M664 270q0 -113 -92 -198t-207 -85q-91 0 -150 61.5t-59 151.5q0 113 90.5 198.5t206.5 85.5q91 0 151 -62t60 -152zM567 259q0 56 -36.5 95t-92.5 39q-74 0 -130 -55.5t-56 -126.5q0 -56 36.5 -95t93.5 -39q73 0 129 55.5t56 126.5z" />
    <glyph glyph-name="p" unicode="p" 
d="M166 -253h-96l128 728h96l-10 -61q71 70 171 70q92 0 151.5 -60.5t59.5 -151.5q0 -116 -90 -200.5t-209 -84.5q-100 0 -147 69zM252 211q0 -57 35.5 -95.5t94.5 -38.5q76 0 132 53.5t56 128.5q0 57 -36.5 95.5t-94.5 38.5q-75 0 -131 -54t-56 -128z" />
    <glyph glyph-name="q" unicode="q" 
d="M578 -253h-96l54 309q-70 -69 -171 -69q-93 0 -152 60.5t-59 150.5q0 117 90.5 201.5t208.5 84.5q98 0 147 -70l10 61h96zM569 258q0 57 -36.5 96t-95.5 39q-75 0 -131 -54t-56 -128q0 -58 36.5 -96t94.5 -38q76 0 132 54.5t56 126.5z" />
    <glyph glyph-name="r" unicode="r" horiz-adv-x="378" 
d="M256 0h-96l84 475h96l-10 -57q40 40 82 53t114 13l-16 -92q-109 0 -154 -38t-57 -108z" />
    <glyph glyph-name="s" unicode="s" horiz-adv-x="433" 
d="M84 49l65 74q52 -49 124 -49q42 0 66 17t24 44q0 22 -22 35.5t-53.5 22t-63 20t-53.5 36.5t-22 64q0 73 54.5 122t137.5 49q95 0 151 -54l-63 -71q-44 37 -103 37q-37 0 -57.5 -16.5t-20.5 -39.5q0 -21 21.5 -34.5t52.5 -23.5t62.5 -22t53 -38.5t21.5 -65.5
q0 -76 -56.5 -122.5t-147.5 -46.5q-101 0 -171 62z" />
    <glyph glyph-name="t" unicode="t" horiz-adv-x="350" 
d="M405 84l-15 -86q-30 -11 -77 -11q-42 0 -68.5 13.5t-35.5 35.5t-11 50.5t5 59.5l42 238h-75l16 91h75l28 161h97l-28 -161h129l-16 -91h-129l-40 -227q-8 -43 2 -61.5t47 -18.5q35 0 54 7z" />
    <glyph glyph-name="u" unicode="u" horiz-adv-x="575" 
d="M545 220l45 255h96l-50 -282q-36 -206 -252 -206t-180 206l50 282h97l-45 -255q-13 -73 6 -108t88 -35q70 0 101 35t44 108z" />
    <glyph glyph-name="v" unicode="v" horiz-adv-x="514" 
d="M403 0h-103l-112 475h104l79 -355l207 355h104z" />
    <glyph glyph-name="w" unicode="w" horiz-adv-x="818" 
d="M723 0h-100l-59 342l-180 -342h-102l-94 475h106l61 -350l187 350h89l63 -350l185 350h107z" />
    <glyph glyph-name="x" unicode="x" horiz-adv-x="466" 
d="M466 0h-107l-86 172l-146 -172h-107l213 250l-114 225h108l74 -147l126 147h108l-194 -225z" />
    <glyph glyph-name="y" unicode="y" horiz-adv-x="485" 
d="M239 -253h-95l130 244l-109 484h105l73 -357l191 357h96z" />
    <glyph glyph-name="z" unicode="z" horiz-adv-x="476" 
d="M476 0h-376l16 88l305 296h-253l16 91h376l-16 -88l-304 -297h252z" />
    <glyph glyph-name="braceleft" unicode="{" horiz-adv-x="352" 
d="M365 -204h-97q-51 0 -71.5 38.5t-11.5 92.5l31 175q20 115 -98 119l16 92q120 4 140 120l31 175q9 53 43.5 92t85.5 39h97l-13 -74h-53q-47 0 -63 -86l-31 -176q-9 -47 -43.5 -85t-97.5 -50q58 -8 79.5 -52.5t11.5 -97.5l-29 -161q-16 -86 33 -86h53z" />
    <glyph glyph-name="bar" unicode="|" horiz-adv-x="240" 
d="M190 -140h-100l155 880h100z" />
    <glyph glyph-name="braceright" unicode="}" horiz-adv-x="352" 
d="M45 -204h-97l13 75h53q47 0 63 86l29 161q10 53 46 97.5t97 52.5q-59 12 -80.5 50t-12.5 85l31 176q16 86 -33 86h-53l13 74h97q51 0 72 -39t11 -92l-31 -175q-20 -116 98 -120l-16 -92q-120 -4 -140 -119l-31 -175q-9 -53 -43.5 -92t-85.5 -39z" />
    <glyph glyph-name="asciitilde" unicode="~" horiz-adv-x="598" 
d="M639 397h70q0 -2 0.5 -8t0.5 -9q0 -63 -47 -105.5t-113 -42.5q-48 0 -108.5 40t-103.5 40q-62 0 -73 -60q-3 -18 -3 -19h-70v17q0 66 47.5 107t120.5 41q47 0 81.5 -20t63.5 -40t61 -20q61 0 71 61q2 12 2 18z" />
    <glyph glyph-name="nbspace" unicode="&#xa0;" horiz-adv-x="270" 
 />
    <glyph glyph-name="exclamdown" unicode="&#xa1;" horiz-adv-x="280" 
d="M210 -192h-100l45 257l75 280h50l-25 -280zM345 501q0 -29 -22 -50t-52 -21q-23 0 -37.5 15t-14.5 38q0 29 22 50t52 21q23 0 37.5 -15t14.5 -38z" />
    <glyph glyph-name="cent" unicode="&#xa2;" horiz-adv-x="593" 
d="M474 0h-89l22 128q-70 16 -112.5 73.5t-42.5 133.5q0 97 70.5 177t170.5 101l22 127h89l-22 -123q55 -7 96 -37.5t62 -77.5l-89 -46q-25 54 -85 68l-54 -309q68 14 112 72l72 -47q-38 -47 -90.5 -78t-110.5 -38zM348 346q0 -42 20.5 -75.5t55.5 -48.5l52 295
q-55 -20 -91.5 -67.5t-36.5 -103.5z" />
    <glyph glyph-name="sterling" unicode="&#xa3;" horiz-adv-x="570" 
d="M559 0h-505l16 88q166 61 166 207v15h-101l16 93h69q-13 52 -13 98q0 102 71 177t195 75q102 0 149.5 -56.5t40.5 -153.5h-102q-3 118 -107 118q-72 0 -107 -43.5t-35 -104.5q0 -42 14 -110h213l-16 -93h-186v-17q0 -53 -34 -107.5t-105 -92.5h377z" />
    <glyph glyph-name="currency" unicode="&#xa4;" horiz-adv-x="612" 
d="M588 72l-66 80q-71 -45 -149 -45t-134 46l-95 -80l-44 53l95 81q-26 44 -26 107q0 92 75 172l-67 81l63 54l68 -82q71 46 149 46t131 -45l96 81l44 -54l-94 -80q26 -46 26 -108q0 -90 -76 -173l67 -80zM562 366q0 53 -34.5 89t-87.5 36q-67 0 -120 -50t-53 -115
q0 -52 35 -88t87 -36q66 0 119.5 50t53.5 114z" />
    <glyph glyph-name="yen" unicode="&#xa5;" horiz-adv-x="649" 
d="M707 180h-223l-32 -180h-103l32 180h-227l15 83h227l8 47l-4 38h-216l14 83h164l-144 309h118l142 -306l252 306h117l-256 -309h160l-14 -83h-212l-18 -38l-8 -47h223z" />
    <glyph glyph-name="brokenbar" unicode="&#xa6;" horiz-adv-x="240" 
d="M283 390h-100l62 350h100zM190 -140h-100l62 350h100z" />
    <glyph glyph-name="section" unicode="&#xa7;" horiz-adv-x="563" 
d="M150 27h99q-7 -48 18.5 -78.5t74.5 -30.5q47 0 84 26t37 68q0 32 -30 58.5t-72.5 47t-85 43t-72.5 58.5t-30 82q0 52 30 90.5t87 74.5q-20 34 -20 75q0 84 66.5 135t154.5 51q81 0 126 -47.5t35 -130.5h-99q4 36 -19 60t-60 24q-39 0 -67 -24.5t-28 -58.5q0 -30 27 -55
t65 -45t76.5 -41.5t65.5 -54t27 -73.5q0 -91 -109 -160q33 -34 33 -91q0 -93 -71.5 -149.5t-165.5 -56.5q-91 0 -140 57.5t-37 145.5zM474 171q26 14 43.5 39t17.5 47q0 20 -12 38t-37.5 35.5t-44.5 28.5t-54.5 28t-46.5 23q-26 -16 -45 -39.5t-19 -46.5q0 -25 23.5 -49
t50 -39t68 -35.5t56.5 -29.5z" />
    <glyph glyph-name="dieresis" unicode="&#xa8;" horiz-adv-x="405" 
d="M362 541q-23 0 -37.5 15t-14.5 38q0 29 22 49.5t52 20.5q23 0 37 -14.5t14 -36.5q0 -30 -21.5 -51t-51.5 -21zM544 541q-23 0 -37.5 15t-14.5 38q0 29 22 49.5t52 20.5q23 0 37 -14.5t14 -36.5q0 -30 -21.5 -51t-51.5 -21z" />
    <glyph glyph-name="copyright" unicode="&#xa9;" horiz-adv-x="864" 
d="M994 425q0 -115 -65 -216.5t-170 -161t-220 -59.5q-140 0 -230.5 94t-90.5 233q0 116 65 217.5t170 160.5t221 59q139 0 229.5 -94.5t90.5 -232.5zM551 56q145 0 257.5 108t112.5 251q0 114 -73.5 191.5t-187.5 77.5q-145 0 -257 -108t-112 -252q0 -114 73 -191t187 -77z
M724 298l63 -41q-37 -49 -92 -77.5t-113 -28.5q-79 0 -131.5 54.5t-52.5 133.5q0 97 80 174t181 77q57 0 101.5 -29t65.5 -77l-78 -41q-12 30 -40 48t-64 18q-63 0 -111.5 -49t-48.5 -111q0 -50 31.5 -84t80.5 -34q75 0 128 67z" />
    <glyph glyph-name="ordfeminine" unicode="&#xaa;" horiz-adv-x="451" 
d="M620 407h-76l7 40q-45 -49 -117 -49q-64 0 -102 40.5t-38 102.5q0 80 58.5 139t141.5 59q74 0 99 -50l8 43h76zM451 465q52 0 88 33t36 87q0 40 -25 63t-65 23q-54 0 -84.5 -36t-30.5 -87q0 -38 21 -60.5t60 -22.5z" />
    <glyph glyph-name="guillemotleft" unicode="&#xab;" horiz-adv-x="517" 
d="M370 52h-108l-92 201l162 199h106l-159 -199zM572 52h-108l-92 201l162 199h106l-159 -199z" />
    <glyph glyph-name="logicalnot" unicode="&#xac;" horiz-adv-x="646" 
d="M703 80h-93l39 220h-443l16 93h536z" />
    <glyph glyph-name="registered" unicode="&#xae;" horiz-adv-x="864" 
d="M994 425q0 -115 -65 -216.5t-170 -161t-220 -59.5q-140 0 -230.5 94t-90.5 233q0 116 65 217.5t170 160.5t221 59q139 0 229.5 -94.5t90.5 -232.5zM551 56q145 0 257.5 108t112.5 251q0 114 -73.5 191.5t-187.5 77.5q-145 0 -257 -108t-112 -252q0 -114 73 -191t187 -77z
M747 153h-87l-73 177h-65l-31 -176h-73l77 435h133q40 0 66.5 -3t54.5 -12t42 -30t14 -54q0 -124 -134 -154zM533 395h79q55 0 85 15.5t30 61.5q0 30 -23 40.5t-69 10.5h-79z" />
    <glyph glyph-name="macron" unicode="&#xaf;" horiz-adv-x="448" 
d="M644 558h-348l15 86h348z" />
    <glyph glyph-name="degree" unicode="&#xb0;" horiz-adv-x="380" 
d="M581 592q0 -69 -54.5 -120.5t-124.5 -51.5q-55 0 -90.5 37t-35.5 91q0 69 54.5 120.5t124.5 51.5q55 0 90.5 -37t35.5 -91zM517 583q0 32 -20.5 53t-52.5 21q-42 0 -73.5 -29.5t-31.5 -70.5q0 -32 20.5 -53.5t53.5 -21.5q42 0 73 30t31 71z" />
    <glyph glyph-name="plusminus" unicode="&#xb1;" horiz-adv-x="640" 
d="M703 360h-219l-35 -204h-93l35 204h-218l17 93h218l36 204h93l-36 -204h219zM640 0h-530l16 93h530z" />
    <glyph glyph-name="twosuperior" unicode="&#xb2;" horiz-adv-x="387" 
d="M486 296h-298l11 64l184 148q82 66 82 117q0 24 -16 38.5t-44 14.5q-70 0 -88 -86h-77q13 72 62 113.5t118 41.5q58 0 92 -31.5t34 -81.5q0 -85 -104 -166l-132 -102h188z" />
    <glyph glyph-name="threesuperior" unicode="&#xb3;" horiz-adv-x="413" 
d="M401 509l11 62h15q35 0 60.5 18t25.5 55q0 24 -14.5 35t-35.5 11q-29 0 -47.5 -19t-24.5 -48h-74l1 8q8 55 55 89.5t105 34.5q49 0 81.5 -27.5t32.5 -73.5q0 -37 -19.5 -67.5t-56.5 -47.5q52 -23 52 -86q0 -70 -53.5 -116.5t-126.5 -46.5q-66 0 -105.5 41.5t-28.5 112.5
h73q-6 -40 15.5 -62.5t57.5 -22.5q38 0 63.5 23.5t25.5 67.5q0 59 -88 59z" />
    <glyph glyph-name="acute" unicode="&#xb4;" horiz-adv-x="358" 
d="M583 656l-234 -114l-31 75l233 121z" />
    <glyph glyph-name="mu" unicode="&#xb5;" horiz-adv-x="583" 
d="M166 -253h-96l128 728h96l-45 -255q-13 -73 6 -108t89 -35q69 0 100 35t44 108l45 255h98l-50 -282q-36 -206 -247 -206q-83 0 -117 49z" />
    <glyph glyph-name="paragraph" unicode="&#xb6;" horiz-adv-x="708" 
d="M635 -193h-84l151 855h-116l-151 -855h-85l82 465q-98 10 -153 63t-55 133q0 105 81.5 188.5t217.5 83.5h396l-14 -78h-119zM445 346l56 318q-92 0 -143.5 -54t-51.5 -126q0 -55 35 -94t104 -44z" />
    <glyph glyph-name="periodcentered" unicode="&#xb7;" horiz-adv-x="323" 
d="M340 193q-23 0 -37.5 15t-14.5 38q0 29 22 49.5t52 20.5q23 0 37 -14.5t14 -36.5q0 -30 -21.5 -51t-51.5 -21z" />
    <glyph glyph-name="cedilla" unicode="&#xb8;" horiz-adv-x="303" 
d="M157 -88h-72l47 88h51l-25 -44h15q39 0 61 -20.5t22 -56.5q0 -52 -35 -84t-86 -32q-39 0 -64 23.5t-20 76.5h47q-3 -30 11 -43.5t36 -13.5q26 0 44.5 18.5t18.5 46.5q0 41 -51 41z" />
    <glyph glyph-name="onesuperior" unicode="&#xb9;" horiz-adv-x="248" 
d="M408 296h-78l66 374h-80l12 70h158z" />
    <glyph glyph-name="ordmasculine" unicode="&#xba;" horiz-adv-x="448" 
d="M650 595q0 -79 -62.5 -137.5t-144.5 -58.5q-64 0 -105.5 41.5t-41.5 103.5q0 78 62.5 137.5t144.5 59.5q64 0 105.5 -41.5t41.5 -104.5zM456 471q48 0 82.5 34t34.5 81q0 36 -22.5 59.5t-60.5 23.5q-48 0 -82.5 -34.5t-34.5 -80.5q0 -36 23 -59.5t60 -23.5z" />
    <glyph glyph-name="guillemotright" unicode="&#xbb;" horiz-adv-x="517" 
d="M206 52h-108l161 201l-88 199h106l91 -199zM408 52h-108l161 201l-88 199h106l91 -199z" />
    <glyph glyph-name="onequarter" unicode="&#xbc;" horiz-adv-x="775" 
d="M782 0h-75l12 69h-207l11 63l253 302h83l-53 -297h53l-12 -68h-53zM731 137l34 192l-158 -192h124zM370 296h-78l66 374h-80l12 70h158zM322 0h-82l536 740h82z" />
    <glyph glyph-name="onehalf" unicode="&#xbd;" horiz-adv-x="834" 
d="M370 296h-78l66 374h-80l12 70h158zM322 0h-82l536 740h82zM892 0h-298l11 64l185 148q81 64 81 117q0 24 -16 38.5t-44 14.5q-70 0 -88 -86h-77q13 72 62 113.5t118 41.5q58 0 92 -31.5t34 -82.5q0 -84 -104 -165l-132 -102h188z" />
    <glyph glyph-name="threequarters" unicode="&#xbe;" horiz-adv-x="891" 
d="M899 0h-74l12 69h-208l11 63l253 302h83l-53 -297h53l-12 -68h-53zM849 137l34 192l-158 -192h124zM440 0h-82l537 740h82zM391 509l11 62h15q35 0 60.5 18t25.5 55q0 24 -14.5 35t-35.5 11q-29 0 -47.5 -19t-24.5 -48h-74l1 8q8 55 55 89.5t105 34.5q49 0 81.5 -27.5
t32.5 -73.5q0 -37 -19.5 -67.5t-56.5 -47.5q52 -23 52 -86q0 -70 -53.5 -116.5t-126.5 -46.5q-66 0 -105.5 41.5t-28.5 112.5h73q-6 -40 15.5 -62.5t57.5 -22.5q38 0 63.5 23.5t25.5 67.5q0 59 -88 59z" />
    <glyph glyph-name="questiondown" unicode="&#xbf;" horiz-adv-x="503" 
d="M518 500q0 -29 -22 -50t-52 -21q-23 0 -37.5 15t-14.5 38q0 29 22 50t52 21q23 0 37.5 -15t14.5 -38zM437 17h96q-17 -97 -86.5 -160.5t-170.5 -63.5q-83 0 -132.5 47t-49.5 127q0 33 5.5 59.5t19.5 47.5t26.5 35.5t37 30.5t40.5 24.5t47 23.5q49 23 70.5 43t27.5 57
l11 63h100l-12 -69q-6 -32 -17.5 -56.5t-21.5 -38.5t-33.5 -29t-35 -20.5t-42.5 -19.5q-29 -13 -46.5 -22.5t-37 -26t-28.5 -38t-9 -50.5q0 -43 28.5 -67.5t74.5 -24.5q57 0 92.5 35t45.5 93z" />
    <glyph glyph-name="Agrave" unicode="&#xc0;" horiz-adv-x="698" 
d="M698 0h-112l-35 173h-340l-97 -173h-110l421 740h112zM530 269l-70 347l-196 -347h266zM557 807l-193 112l61 84l190 -120z" />
    <glyph glyph-name="Aacute" unicode="&#xc1;" horiz-adv-x="698" 
d="M698 0h-112l-35 173h-340l-97 -173h-110l421 740h112zM530 269l-70 347l-196 -347h266zM647 921l-234 -114l-31 75l233 121z" />
    <glyph glyph-name="Acircumflex" unicode="&#xc2;" horiz-adv-x="698" 
d="M698 0h-112l-35 173h-340l-97 -173h-110l421 740h112zM530 269l-70 347l-196 -347h266zM672 859l-63 -53l-96 112l-137 -112l-44 53l162 137h66z" />
    <glyph glyph-name="Atilde" unicode="&#xc3;" horiz-adv-x="698" 
d="M698 0h-112l-35 173h-340l-97 -173h-110l421 740h112zM530 269l-70 347l-196 -347h266zM651 924l30 -65q-58 -53 -114 -53q-29 0 -72 20.5t-64 20.5q-32 0 -69 -30l-34 67q60 48 115 48q30 0 72 -20.5t62 -20.5q35 0 74 33z" />
    <glyph glyph-name="Adieresis" unicode="&#xc4;" horiz-adv-x="698" 
d="M698 0h-112l-35 173h-340l-97 -173h-110l421 740h112zM530 269l-70 347l-196 -347h266zM402 806q-23 0 -37.5 15t-14.5 38q0 29 22 49.5t52 20.5q23 0 37 -14.5t14 -36.5q0 -30 -21.5 -51t-51.5 -21zM584 806q-23 0 -37.5 15t-14.5 38q0 29 22 49.5t52 20.5
q23 0 37 -14.5t14 -36.5q0 -30 -21.5 -51t-51.5 -21z" />
    <glyph glyph-name="Aring" unicode="&#xc5;" horiz-adv-x="698" 
d="M698 0h-112l-35 173h-340l-97 -173h-110l421 740h112zM530 269l-70 347l-196 -347h266zM611 882q0 -49 -39 -85t-88 -36q-38 0 -63.5 26.5t-25.5 64.5q0 48 38.5 85t87.5 37q39 0 64.5 -26.5t25.5 -65.5zM548 874q0 16 -10.5 27t-26.5 11q-21 0 -37.5 -15.5t-16.5 -36.5
q0 -16 10.5 -27t27.5 -11q20 0 36.5 15t16.5 37z" />
    <glyph glyph-name="AE" unicode="&#xc6;" horiz-adv-x="998" 
d="M942 0h-432l32 180h-287l-144 -180h-117l597 740h481l-17 -97h-330l-36 -209h274l-17 -96h-274l-43 -242h330zM559 276l63 361l-290 -361h227z" />
    <glyph glyph-name="Ccedilla" unicode="&#xc7;" horiz-adv-x="715" 
d="M489 -89h-73l42 79q-122 15 -199 105.5t-77 218.5q0 116 64.5 218t170.5 161t224 59q165 0 257 -116l-84 -64q-67 87 -188 87q-132 0 -236.5 -101t-104.5 -230q0 -103 68 -175.5t171 -72.5q112 0 213 84l55 -67q-133 -110 -284 -110l-19 -32h16q38 0 60 -20.5t22 -55.5
q0 -53 -35 -85t-86 -32q-38 0 -63.5 23.5t-20.5 76.5h47q-2 -30 11.5 -43.5t34.5 -13.5q27 0 45 19t18 46q0 41 -49 41z" />
    <glyph glyph-name="Egrave" unicode="&#xc8;" horiz-adv-x="570" 
d="M602 0h-432l130 740h432l-17 -97h-330l-36 -209h274l-17 -96h-274l-43 -242h330zM591 807l-193 112l61 84l190 -120z" />
    <glyph glyph-name="Eacute" unicode="&#xc9;" horiz-adv-x="570" 
d="M602 0h-432l130 740h432l-17 -97h-330l-36 -209h274l-17 -96h-274l-43 -242h330zM696 921l-234 -114l-31 75l233 121z" />
    <glyph glyph-name="Ecircumflex" unicode="&#xca;" horiz-adv-x="570" 
d="M602 0h-432l130 740h432l-17 -97h-330l-36 -209h274l-17 -96h-274l-43 -242h330zM715 859l-63 -53l-96 112l-137 -112l-44 53l162 137h66z" />
    <glyph glyph-name="Edieresis" unicode="&#xcb;" horiz-adv-x="570" 
d="M602 0h-432l130 740h432l-17 -97h-330l-36 -209h274l-17 -96h-274l-43 -242h330zM443 806q-23 0 -37.5 15t-14.5 38q0 29 22 49.5t52 20.5q23 0 37 -14.5t14 -36.5q0 -30 -21.5 -51t-51.5 -21zM625 806q-23 0 -37.5 15t-14.5 38q0 29 22 49.5t52 20.5q23 0 37 -14.5
t14 -36.5q0 -30 -21.5 -51t-51.5 -21z" />
    <glyph glyph-name="Igrave" unicode="&#xcc;" horiz-adv-x="272" 
d="M272 0h-102l130 740h102zM419 807l-193 112l61 84l190 -120z" />
    <glyph glyph-name="Iacute" unicode="&#xcd;" horiz-adv-x="272" 
d="M272 0h-102l130 740h102zM518 921l-234 -114l-31 75l233 121z" />
    <glyph glyph-name="Icircumflex" unicode="&#xce;" horiz-adv-x="272" 
d="M272 0h-102l130 740h102zM542 859l-63 -53l-96 112l-137 -112l-44 53l162 137h66z" />
    <glyph glyph-name="Idieresis" unicode="&#xcf;" horiz-adv-x="272" 
d="M272 0h-102l130 740h102zM272 806q-23 0 -37.5 15t-14.5 38q0 29 22 49.5t52 20.5q23 0 37 -14.5t14 -36.5q0 -30 -21.5 -51t-51.5 -21zM454 806q-23 0 -37.5 15t-14.5 38q0 29 22 49.5t52 20.5q23 0 37 -14.5t14 -36.5q0 -30 -21.5 -51t-51.5 -21z" />
    <glyph glyph-name="Eth" unicode="&#xd0;" horiz-adv-x="718" 
d="M354 0h-203l58 329h-77l17 97h77l55 314h204q153 0 245.5 -83t92.5 -226q0 -128 -63.5 -227.5t-170 -151.5t-235.5 -52zM270 96h95q154 0 254.5 82t100.5 241q0 114 -75 169t-196 55h-83l-38 -217h185l-17 -97h-185z" />
    <glyph glyph-name="Ntilde" unicode="&#xd1;" horiz-adv-x="825" 
d="M825 0h-106l-340 606l-107 -606h-102l130 740h132l321 -569l100 569h102zM806 924l30 -65q-58 -53 -114 -53q-29 0 -72 20.5t-64 20.5q-32 0 -69 -30l-34 67q60 48 115 48q30 0 72 -20.5t62 -20.5q35 0 74 33z" />
    <glyph glyph-name="Ograve" unicode="&#xd2;" horiz-adv-x="838" 
d="M967 426q0 -117 -65 -219t-170.5 -161t-223.5 -59q-142 0 -234 93t-92 233q0 116 63.5 217.5t170 162t226.5 60.5q143 0 234 -93.5t91 -233.5zM524 80q135 0 237.5 99t102.5 233q0 105 -66.5 176t-172.5 71q-135 0 -237.5 -100.5t-102.5 -232.5q0 -105 67 -175.5
t172 -70.5zM695 807l-193 112l61 84l190 -120z" />
    <glyph glyph-name="Oacute" unicode="&#xd3;" horiz-adv-x="838" 
d="M967 426q0 -117 -65 -219t-170.5 -161t-223.5 -59q-142 0 -234 93t-92 233q0 116 63.5 217.5t170 162t226.5 60.5q143 0 234 -93.5t91 -233.5zM524 80q135 0 237.5 99t102.5 233q0 105 -66.5 176t-172.5 71q-135 0 -237.5 -100.5t-102.5 -232.5q0 -105 67 -175.5
t172 -70.5zM816 921l-234 -114l-31 75l233 121z" />
    <glyph glyph-name="Ocircumflex" unicode="&#xd4;" horiz-adv-x="838" 
d="M967 426q0 -117 -65 -219t-170.5 -161t-223.5 -59q-142 0 -234 93t-92 233q0 116 63.5 217.5t170 162t226.5 60.5q143 0 234 -93.5t91 -233.5zM524 80q135 0 237.5 99t102.5 233q0 105 -66.5 176t-172.5 71q-135 0 -237.5 -100.5t-102.5 -232.5q0 -105 67 -175.5
t172 -70.5zM830 859l-63 -53l-96 112l-137 -112l-44 53l162 137h66z" />
    <glyph glyph-name="Otilde" unicode="&#xd5;" horiz-adv-x="838" 
d="M967 426q0 -117 -65 -219t-170.5 -161t-223.5 -59q-142 0 -234 93t-92 233q0 116 63.5 217.5t170 162t226.5 60.5q143 0 234 -93.5t91 -233.5zM524 80q135 0 237.5 99t102.5 233q0 105 -66.5 176t-172.5 71q-135 0 -237.5 -100.5t-102.5 -232.5q0 -105 67 -175.5
t172 -70.5zM810 924l30 -65q-58 -53 -114 -53q-29 0 -72 20.5t-64 20.5q-32 0 -69 -30l-34 67q60 48 115 48q30 0 72 -20.5t62 -20.5q35 0 74 33z" />
    <glyph glyph-name="Odieresis" unicode="&#xd6;" horiz-adv-x="838" 
d="M967 426q0 -117 -65 -219t-170.5 -161t-223.5 -59q-142 0 -234 93t-92 233q0 116 63.5 217.5t170 162t226.5 60.5q143 0 234 -93.5t91 -233.5zM524 80q135 0 237.5 99t102.5 233q0 105 -66.5 176t-172.5 71q-135 0 -237.5 -100.5t-102.5 -232.5q0 -105 67 -175.5
t172 -70.5zM561 806q-23 0 -37.5 15t-14.5 38q0 29 22 49.5t52 20.5q23 0 37 -14.5t14 -36.5q0 -30 -21.5 -51t-51.5 -21zM743 806q-23 0 -37.5 15t-14.5 38q0 29 22 49.5t52 20.5q23 0 37 -14.5t14 -36.5q0 -30 -21.5 -51t-51.5 -21z" />
    <glyph glyph-name="multiply" unicode="&#xd7;" horiz-adv-x="578" 
d="M563 111l-139 168l-197 -168l-55 65l199 169l-139 167l77 66l138 -168l198 168l53 -66l-196 -167l138 -169z" />
    <glyph glyph-name="Oslash" unicode="&#xd8;" horiz-adv-x="838" 
d="M319 -46l-68 34l48 66q-55 42 -86 111t-31 148q0 116 63.5 217.5t170 162t226.5 60.5q75 0 141 -29l46 63l70 -35l-49 -67q55 -42 86 -110.5t31 -148.5q0 -117 -65 -219t-170.5 -161t-223.5 -59q-79 0 -144 28zM524 80q135 0 237.5 99t102.5 232q0 118 -76 188l-364 -500
q48 -19 100 -19zM285 325q0 -56 20 -105t56 -80l361 500q-42 19 -97 19q-135 0 -237.5 -101t-102.5 -233z" />
    <glyph glyph-name="Ugrave" unicode="&#xd9;" horiz-adv-x="787" 
d="M797 363l66 377h103l-73 -413q-29 -164 -130 -252t-243 -88t-212 88t-41 252l73 413h102l-66 -377q-50 -283 160 -283q211 0 261 283zM723 807l-193 112l61 84l190 -120z" />
    <glyph glyph-name="Uacute" unicode="&#xda;" horiz-adv-x="787" 
d="M797 363l66 377h103l-73 -413q-29 -164 -130 -252t-243 -88t-212 88t-41 252l73 413h102l-66 -377q-50 -283 160 -283q211 0 261 283zM844 921l-234 -114l-31 75l233 121z" />
    <glyph glyph-name="Ucircumflex" unicode="&#xdb;" horiz-adv-x="787" 
d="M797 363l66 377h103l-73 -413q-29 -164 -130 -252t-243 -88t-212 88t-41 252l73 413h102l-66 -377q-50 -283 160 -283q211 0 261 283zM843 859l-63 -53l-96 112l-137 -112l-44 53l162 137h66z" />
    <glyph glyph-name="Udieresis" unicode="&#xdc;" horiz-adv-x="787" 
d="M797 363l66 377h103l-73 -413q-29 -164 -130 -252t-243 -88t-212 88t-41 252l73 413h102l-66 -377q-50 -283 160 -283q211 0 261 283zM573 806q-23 0 -37.5 15t-14.5 38q0 29 22 49.5t52 20.5q23 0 37 -14.5t14 -36.5q0 -30 -21.5 -51t-51.5 -21zM755 806q-23 0 -37.5 15
t-14.5 38q0 29 22 49.5t52 20.5q23 0 37 -14.5t14 -36.5q0 -30 -21.5 -51t-51.5 -21z" />
    <glyph glyph-name="Yacute" unicode="&#xdd;" horiz-adv-x="644" 
d="M509 0h-102l58 333l-191 407h118l142 -306l253 306h116l-336 -406zM780 921l-234 -114l-31 75l233 121z" />
    <glyph glyph-name="Thorn" unicode="&#xde;" horiz-adv-x="601" 
d="M418 130h-123l-23 -130h-102l130 740h102l-23 -132h90q35 0 68 -3q95 -9 144 -56.5t49 -131.5q0 -133 -83 -210t-229 -77zM312 227h121q87 0 139.5 42t52.5 126q0 55 -36 85.5t-106 30.5h-121z" />
    <glyph glyph-name="germandbls" unicode="&#xdf;" horiz-adv-x="590" 
d="M383 0h-61l16 89h70q81 0 121 44t40 105q0 48 -31.5 77.5t-95.5 29.5h-59l15 87h66q48 0 79.5 36t31.5 90q0 41 -23.5 66.5t-69.5 25.5q-64 0 -95.5 -45t-45.5 -124l-85 -481h-96l86 485q45 255 251 255q84 0 131 -43.5t47 -114.5q0 -67 -33 -116t-79 -72
q49 -16 75.5 -56.5t26.5 -95.5q0 -108 -80.5 -175t-201.5 -67z" />
    <glyph glyph-name="agrave" unicode="&#xe0;" 
d="M623 0h-96l9 56q-70 -69 -171 -69q-93 0 -152 60.5t-59 150.5q0 117 90.5 201.5t208.5 84.5q98 0 147 -70l10 61h96zM569 258q0 57 -36.5 96t-95.5 39q-75 0 -131 -54t-56 -128q0 -58 36.5 -96t94.5 -38q76 0 132 54.5t56 126.5zM544 542l-193 112l61 84l190 -120z" />
    <glyph glyph-name="aacute" unicode="&#xe1;" 
d="M623 0h-96l9 56q-70 -69 -171 -69q-93 0 -152 60.5t-59 150.5q0 117 90.5 201.5t208.5 84.5q98 0 147 -70l10 61h96zM569 258q0 57 -36.5 96t-95.5 39q-75 0 -131 -54t-56 -128q0 -58 36.5 -96t94.5 -38q76 0 132 54.5t56 126.5zM645 656l-234 -114l-31 75l233 121z" />
    <glyph glyph-name="acircumflex" unicode="&#xe2;" 
d="M623 0h-96l9 56q-70 -69 -171 -69q-93 0 -152 60.5t-59 150.5q0 117 90.5 201.5t208.5 84.5q98 0 147 -70l10 61h96zM569 258q0 57 -36.5 96t-95.5 39q-75 0 -131 -54t-56 -128q0 -58 36.5 -96t94.5 -38q76 0 132 54.5t56 126.5zM647 594l-63 -53l-96 112l-137 -112
l-44 53l162 137h66z" />
    <glyph glyph-name="atilde" unicode="&#xe3;" 
d="M623 0h-96l9 56q-70 -69 -171 -69q-93 0 -152 60.5t-59 150.5q0 117 90.5 201.5t208.5 84.5q98 0 147 -70l10 61h96zM569 258q0 57 -36.5 96t-95.5 39q-75 0 -131 -54t-56 -128q0 -58 36.5 -96t94.5 -38q76 0 132 54.5t56 126.5zM625 659l30 -65q-58 -53 -114 -53
q-29 0 -72 20.5t-64 20.5q-32 0 -69 -30l-34 67q60 48 115 48q30 0 72 -20.5t62 -20.5q35 0 74 33z" />
    <glyph glyph-name="adieresis" unicode="&#xe4;" 
d="M623 0h-96l9 56q-70 -69 -171 -69q-93 0 -152 60.5t-59 150.5q0 117 90.5 201.5t208.5 84.5q98 0 147 -70l10 61h96zM569 258q0 57 -36.5 96t-95.5 39q-75 0 -131 -54t-56 -128q0 -58 36.5 -96t94.5 -38q76 0 132 54.5t56 126.5zM376 541q-23 0 -37.5 15t-14.5 38
q0 29 22 49.5t52 20.5q23 0 37 -14.5t14 -36.5q0 -30 -21.5 -51t-51.5 -21zM558 541q-23 0 -37.5 15t-14.5 38q0 29 22 49.5t52 20.5q23 0 37 -14.5t14 -36.5q0 -30 -21.5 -51t-51.5 -21z" />
    <glyph glyph-name="aring" unicode="&#xe5;" 
d="M623 0h-96l9 56q-70 -69 -171 -69q-93 0 -152 60.5t-59 150.5q0 117 90.5 201.5t208.5 84.5q98 0 147 -70l10 61h96zM569 258q0 57 -36.5 96t-95.5 39q-75 0 -131 -54t-56 -128q0 -58 36.5 -96t94.5 -38q76 0 132 54.5t56 126.5zM585 627q0 -49 -39 -85t-88 -36
q-38 0 -63.5 26.5t-25.5 64.5q0 48 38.5 85t87.5 37q39 0 64.5 -26.5t25.5 -65.5zM522 619q0 16 -10.5 27t-26.5 11q-21 0 -37.5 -15.5t-16.5 -36.5q0 -16 10.5 -27t27.5 -11q20 0 36.5 15t16.5 37z" />
    <glyph glyph-name="ae" unicode="&#xe6;" horiz-adv-x="980" 
d="M1055 203h-389q0 -56 35.5 -92.5t95.5 -36.5q88 0 145 65l59 -52q-41 -47 -99 -73.5t-119 -26.5q-96 0 -153 60l-9 -47h-93l10 56q-70 -69 -171 -69q-93 0 -152 60.5t-59 151.5q0 117 90.5 201t208.5 84q98 0 146 -70l11 61h93l-9 -50q79 59 170 59q90 0 145.5 -61
t55.5 -150q0 -29 -12 -70zM570 259q0 57 -36 95.5t-95 38.5q-75 0 -131 -54.5t-56 -128.5q0 -58 36 -95.5t95 -37.5q76 0 131.5 54.5t55.5 127.5zM683 279h290q0 50 -34.5 83.5t-89.5 33.5q-54 0 -99 -32.5t-67 -84.5z" />
    <glyph glyph-name="ccedilla" unicode="&#xe7;" horiz-adv-x="528" 
d="M358 -88h-72l41 78q-76 13 -123.5 71.5t-47.5 138.5q0 113 90.5 198.5t206.5 85.5q66 0 116.5 -31.5t74.5 -85.5l-89 -46q-14 33 -45.5 52.5t-72.5 19.5q-73 0 -129 -55t-56 -126q0 -57 36.5 -96t93.5 -39q88 0 146 75l72 -47q-42 -52 -101 -83.5t-123 -34.5l-17 -31h15
q38 0 60 -20.5t22 -55.5q0 -53 -34.5 -85t-85.5 -32q-39 0 -64.5 23.5t-20.5 76.5h47q-2 -30 12 -43.5t35 -13.5q26 0 44.5 18.5t18.5 46.5q0 41 -50 41z" />
    <glyph glyph-name="egrave" unicode="&#xe8;" horiz-adv-x="563" 
d="M636 203h-389q0 -56 36 -92.5t96 -36.5q87 0 144 65l59 -52q-41 -47 -99.5 -73.5t-119.5 -26.5q-92 0 -150.5 60t-58.5 151q0 113 87 199.5t204 86.5q91 0 147 -61t56 -150q0 -29 -12 -70zM264 279h290q0 50 -34.5 83.5t-89.5 33.5q-54 0 -99 -32.5t-67 -84.5zM520 542
l-193 112l61 84l190 -120z" />
    <glyph glyph-name="eacute" unicode="&#xe9;" horiz-adv-x="563" 
d="M636 203h-389q0 -56 36 -92.5t96 -36.5q87 0 144 65l59 -52q-41 -47 -99.5 -73.5t-119.5 -26.5q-92 0 -150.5 60t-58.5 151q0 113 87 199.5t204 86.5q91 0 147 -61t56 -150q0 -29 -12 -70zM264 279h290q0 50 -34.5 83.5t-89.5 33.5q-54 0 -99 -32.5t-67 -84.5zM613 656
l-234 -114l-31 75l233 121z" />
    <glyph glyph-name="ecircumflex" unicode="&#xea;" horiz-adv-x="563" 
d="M636 203h-389q0 -56 36 -92.5t96 -36.5q87 0 144 65l59 -52q-41 -47 -99.5 -73.5t-119.5 -26.5q-92 0 -150.5 60t-58.5 151q0 113 87 199.5t204 86.5q91 0 147 -61t56 -150q0 -29 -12 -70zM264 279h290q0 50 -34.5 83.5t-89.5 33.5q-54 0 -99 -32.5t-67 -84.5zM635 594
l-63 -53l-96 112l-137 -112l-44 53l162 137h66z" />
    <glyph glyph-name="edieresis" unicode="&#xeb;" horiz-adv-x="563" 
d="M636 203h-389q0 -56 36 -92.5t96 -36.5q87 0 144 65l59 -52q-41 -47 -99.5 -73.5t-119.5 -26.5q-92 0 -150.5 60t-58.5 151q0 113 87 199.5t204 86.5q91 0 147 -61t56 -150q0 -29 -12 -70zM264 279h290q0 50 -34.5 83.5t-89.5 33.5q-54 0 -99 -32.5t-67 -84.5zM364 541
q-23 0 -37.5 15t-14.5 38q0 29 22 49.5t52 20.5q23 0 37 -14.5t14 -36.5q0 -30 -21.5 -51t-51.5 -21zM546 541q-23 0 -37.5 15t-14.5 38q0 29 22 49.5t52 20.5q23 0 37 -14.5t14 -36.5q0 -30 -21.5 -51t-51.5 -21z" />
    <glyph glyph-name="igrave" unicode="&#xec;" horiz-adv-x="257" 
d="M380 542l-193 112l61 84l190 -120zM257 0h-97l84 475h97z" />
    <glyph glyph-name="iacute" unicode="&#xed;" horiz-adv-x="257" 
d="M458 656l-234 -114l-31 75l233 121zM257 0h-97l84 475h97z" />
    <glyph glyph-name="icircumflex" unicode="&#xee;" horiz-adv-x="257" 
d="M241 0h-97l84 475h97zM468 594l-63 -53l-96 112l-137 -112l-44 53l162 137h66z" />
    <glyph glyph-name="idieresis" unicode="&#xef;" horiz-adv-x="257" 
d="M213 541q-23 0 -37.5 15t-14.5 38q0 29 22 49.5t52 20.5q23 0 37 -14.5t14 -36.5q0 -30 -21.5 -51t-51.5 -21zM395 541q-23 0 -37.5 15t-14.5 38q0 29 22 49.5t52 20.5q23 0 37 -14.5t14 -36.5q0 -30 -21.5 -51t-51.5 -21zM257 0h-97l84 475h97z" />
    <glyph glyph-name="eth" unicode="&#xf0;" horiz-adv-x="580" 
d="M375 536l-39 45l67 54q-53 31 -123 50l68 56q69 -15 127 -47l82 65l38 -47l-68 -53q69 -56 107 -144t38 -185q0 -77 -21 -138.5t-54 -99t-75 -62t-81 -34t-76 -9.5q-90 0 -149.5 61.5t-59.5 151.5q0 112 90 198t203 86q69 0 118 -45q-30 96 -112 161zM567 259
q0 57 -37 95.5t-93 38.5q-73 0 -129 -55t-56 -126q0 -57 36.5 -96t93.5 -39q74 0 129.5 55.5t55.5 126.5z" />
    <glyph glyph-name="ntilde" unicode="&#xf1;" horiz-adv-x="580" 
d="M590 0h-97l44 249q26 144 -91 144q-121 0 -147 -151l-43 -242h-96l84 475h96l-9 -51q63 60 148 60q89 0 133 -54t25 -161zM619 659l30 -65q-58 -53 -114 -53q-29 0 -72 20.5t-64 20.5q-32 0 -69 -30l-34 67q60 48 115 48q30 0 72 -20.5t62 -20.5q35 0 74 33z" />
    <glyph glyph-name="ograve" unicode="&#xf2;" horiz-adv-x="580" 
d="M664 270q0 -113 -92 -198t-207 -85q-91 0 -150 61.5t-59 151.5q0 113 90.5 198.5t206.5 85.5q91 0 151 -62t60 -152zM567 259q0 56 -36.5 95t-92.5 39q-74 0 -130 -55.5t-56 -126.5q0 -56 36.5 -95t93.5 -39q73 0 129 55.5t56 126.5zM517 542l-193 112l61 84l190 -120z
" />
    <glyph glyph-name="oacute" unicode="&#xf3;" horiz-adv-x="580" 
d="M664 270q0 -113 -92 -198t-207 -85q-91 0 -150 61.5t-59 151.5q0 113 90.5 198.5t206.5 85.5q91 0 151 -62t60 -152zM567 259q0 56 -36.5 95t-92.5 39q-74 0 -130 -55.5t-56 -126.5q0 -56 36.5 -95t93.5 -39q73 0 129 55.5t56 126.5zM627 656l-234 -114l-31 75l233 121z
" />
    <glyph glyph-name="ocircumflex" unicode="&#xf4;" horiz-adv-x="580" 
d="M664 270q0 -113 -92 -198t-207 -85q-91 0 -150 61.5t-59 151.5q0 113 90.5 198.5t206.5 85.5q91 0 151 -62t60 -152zM567 259q0 56 -36.5 95t-92.5 39q-74 0 -130 -55.5t-56 -126.5q0 -56 36.5 -95t93.5 -39q73 0 129 55.5t56 126.5zM642 594l-63 -53l-96 112l-137 -112
l-44 53l162 137h66z" />
    <glyph glyph-name="otilde" unicode="&#xf5;" horiz-adv-x="580" 
d="M664 270q0 -113 -92 -198t-207 -85q-91 0 -150 61.5t-59 151.5q0 113 90.5 198.5t206.5 85.5q91 0 151 -62t60 -152zM567 259q0 56 -36.5 95t-92.5 39q-74 0 -130 -55.5t-56 -126.5q0 -56 36.5 -95t93.5 -39q73 0 129 55.5t56 126.5zM621 659l30 -65q-58 -53 -114 -53
q-29 0 -72 20.5t-64 20.5q-32 0 -69 -30l-34 67q60 48 115 48q30 0 72 -20.5t62 -20.5q35 0 74 33z" />
    <glyph glyph-name="odieresis" unicode="&#xf6;" horiz-adv-x="580" 
d="M664 270q0 -113 -92 -198t-207 -85q-91 0 -150 61.5t-59 151.5q0 113 90.5 198.5t206.5 85.5q91 0 151 -62t60 -152zM567 259q0 56 -36.5 95t-92.5 39q-74 0 -130 -55.5t-56 -126.5q0 -56 36.5 -95t93.5 -39q73 0 129 55.5t56 126.5zM372 541q-23 0 -37.5 15t-14.5 38
q0 29 22 49.5t52 20.5q23 0 37 -14.5t14 -36.5q0 -30 -21.5 -51t-51.5 -21zM554 541q-23 0 -37.5 15t-14.5 38q0 29 22 49.5t52 20.5q23 0 37 -14.5t14 -36.5q0 -30 -21.5 -51t-51.5 -21z" />
    <glyph glyph-name="divide" unicode="&#xf7;" horiz-adv-x="630" 
d="M436 99q-23 0 -37.5 15t-14.5 38q0 29 22 50t52 21q23 0 37 -15t14 -37q0 -30 -21.5 -51t-51.5 -21zM501 469q-23 0 -37.5 15t-14.5 38q0 29 22 49.5t52 20.5q23 0 37 -14.5t14 -36.5q0 -30 -21.5 -51t-51.5 -21zM736 299h-530l16 93h530z" />
    <glyph glyph-name="oslash" unicode="&#xf8;" horiz-adv-x="580" 
d="M253 -82l-58 25l48 79q-41 27 -64 74.5t-23 102.5q0 113 90.5 199t206.5 86q35 0 64 -10l48 80l59 -26l-50 -80q41 -28 65.5 -76t24.5 -103q0 -112 -92 -197t-207 -85q-33 0 -65 9zM567 258q0 67 -44 104l-171 -281q8 -2 25 -2q75 0 132.5 52t57.5 127zM252 212
q0 -66 43 -104l171 281q-9 3 -26 3q-74 0 -131 -53t-57 -127z" />
    <glyph glyph-name="ugrave" unicode="&#xf9;" horiz-adv-x="575" 
d="M545 220l45 255h96l-50 -282q-36 -206 -252 -206t-180 206l50 282h97l-45 -255q-13 -73 6 -108t88 -35q70 0 101 35t44 108zM533 542l-193 112l61 84l190 -120z" />
    <glyph glyph-name="uacute" unicode="&#xfa;" horiz-adv-x="575" 
d="M545 220l45 255h96l-50 -282q-36 -206 -252 -206t-180 206l50 282h97l-45 -255q-13 -73 6 -108t88 -35q70 0 101 35t44 108zM663 656l-234 -114l-31 75l233 121z" />
    <glyph glyph-name="ucircumflex" unicode="&#xfb;" horiz-adv-x="575" 
d="M545 220l45 255h96l-50 -282q-36 -206 -252 -206t-180 206l50 282h97l-45 -255q-13 -73 6 -108t88 -35q70 0 101 35t44 108zM661 594l-63 -53l-96 112l-137 -112l-44 53l162 137h66z" />
    <glyph glyph-name="udieresis" unicode="&#xfc;" horiz-adv-x="575" 
d="M545 220l45 255h96l-50 -282q-36 -206 -252 -206t-180 206l50 282h97l-45 -255q-13 -73 6 -108t88 -35q70 0 101 35t44 108zM390 541q-23 0 -37.5 15t-14.5 38q0 29 22 49.5t52 20.5q23 0 37 -14.5t14 -36.5q0 -30 -21.5 -51t-51.5 -21zM572 541q-23 0 -37.5 15t-14.5 38
q0 29 22 49.5t52 20.5q23 0 37 -14.5t14 -36.5q0 -30 -21.5 -51t-51.5 -21z" />
    <glyph glyph-name="yacute" unicode="&#xfd;" horiz-adv-x="485" 
d="M239 -253h-95l130 244l-109 484h105l73 -357l191 357h96zM598 656l-234 -114l-31 75l233 121z" />
    <glyph glyph-name="thorn" unicode="&#xfe;" 
d="M166 -253h-96l175 993h96l-57 -326q71 70 171 70q93 0 152 -60t59 -151q0 -117 -90 -201.5t-209 -84.5q-100 0 -147 69zM252 210q0 -57 36 -95t95 -38q76 0 131.5 53.5t55.5 127.5q0 59 -36 97t-95 38q-76 0 -131.5 -54t-55.5 -129z" />
    <glyph glyph-name="ydieresis" unicode="&#xff;" horiz-adv-x="485" 
d="M239 -253h-95l130 244l-109 484h105l73 -357l191 357h96zM327 541q-23 0 -37.5 15t-14.5 38q0 29 22 49.5t52 20.5q23 0 37 -14.5t14 -36.5q0 -30 -21.5 -51t-51.5 -21zM509 541q-23 0 -37.5 15t-14.5 38q0 29 22 49.5t52 20.5q23 0 37 -14.5t14 -36.5q0 -30 -21.5 -51
t-51.5 -21z" />
    <glyph glyph-name="dotlessi" unicode="&#x131;" horiz-adv-x="257" 
d="M257 0h-97l84 475h97z" />
    <glyph glyph-name="Lslash" unicode="&#x141;" horiz-adv-x="558" 
d="M465 442l-179 -116l-41 -230h348l-17 -96h-450l45 253l-89 -57l17 99l90 57l68 388h102l-56 -315l180 116z" />
    <glyph glyph-name="lslash" unicode="&#x142;" horiz-adv-x="270" 
d="M370 387l-83 -53l-32 -183q-7 -40 2 -57t43 -17q15 0 25 1l-15 -84q-30 -7 -53 -7q-60 0 -87.5 34.5t-16.5 99.5l25 143l-74 -48l17 96l74 48l67 380h96l-54 -310l83 53z" />
    <glyph glyph-name="OE" unicode="&#x152;" horiz-adv-x="1213" 
d="M1276 0h-432l20 111q-134 -124 -306 -124q-142 0 -234 93t-92 233q0 87 38 168t100.5 140.5t147 95.5t173.5 36q84 0 152.5 -33t111.5 -92l20 112h432l-18 -97h-330l-36 -209h274l-17 -96h-274l-43 -242h330zM914 412q0 105 -67 176t-172 71q-135 0 -237.5 -100.5
t-102.5 -232.5q0 -105 67 -175.5t172 -70.5q135 0 237.5 99t102.5 233z" />
    <glyph glyph-name="oe" unicode="&#x153;" horiz-adv-x="970" 
d="M1045 202h-386q2 -56 37.5 -90.5t92.5 -34.5q82 0 143 69l68 -49q-96 -110 -227 -110q-64 0 -112.5 28t-74.5 76q-43 -48 -101 -76t-120 -28q-91 0 -150 61.5t-59 151.5q0 113 90.5 198.5t205.5 85.5q62 0 110.5 -28.5t73.5 -76.5q92 105 218 105q92 0 146.5 -61.5
t54.5 -151.5q0 -36 -10 -69zM567 258q0 57 -36 96t-93 39q-73 0 -129.5 -55.5t-56.5 -126.5q0 -56 36.5 -95t93.5 -39q73 0 129 55t56 126zM676 280h286q-2 50 -33 81.5t-87 31.5q-54 0 -97 -31t-69 -82z" />
    <glyph glyph-name="Scaron" unicode="&#x160;" horiz-adv-x="538" 
d="M80 112l77 71q29 -47 65.5 -75t91.5 -28q69 0 115.5 42t46.5 96q0 37 -29.5 63t-71.5 44t-84 38t-71.5 58.5t-29.5 92.5q0 103 74.5 171t195.5 68q107 0 180 -70l-71 -78q-53 54 -130 54q-66 0 -104.5 -33t-38.5 -85q0 -38 29.5 -64t71 -43t83.5 -37t71.5 -58.5
t29.5 -94.5q0 -111 -80.5 -184t-199.5 -73q-73 0 -131 32t-90 93zM647 943l-162 -137h-66l-112 137l63 53l96 -112l137 112z" />
    <glyph glyph-name="scaron" unicode="&#x161;" horiz-adv-x="433" 
d="M84 49l65 74q52 -49 124 -49q42 0 66 17t24 44q0 22 -22 35.5t-53.5 22t-63 20t-53.5 36.5t-22 64q0 73 54.5 122t137.5 49q95 0 151 -54l-63 -71q-44 37 -103 37q-37 0 -57.5 -16.5t-20.5 -39.5q0 -21 21.5 -34.5t52.5 -23.5t62.5 -22t53 -38.5t21.5 -65.5
q0 -76 -56.5 -122.5t-147.5 -46.5q-101 0 -171 62zM552 678l-162 -137h-66l-112 137l63 53l96 -112l137 112z" />
    <glyph glyph-name="Ydieresis" unicode="&#x178;" horiz-adv-x="644" 
d="M509 0h-102l58 333l-191 407h118l142 -306l253 306h116l-336 -406zM510 806q-23 0 -37.5 15t-14.5 38q0 29 22 49.5t52 20.5q23 0 37 -14.5t14 -36.5q0 -30 -21.5 -51t-51.5 -21zM692 806q-23 0 -37.5 15t-14.5 38q0 29 22 49.5t52 20.5q23 0 37 -14.5t14 -36.5
q0 -30 -21.5 -51t-51.5 -21z" />
    <glyph glyph-name="Zcaron" unicode="&#x17d;" horiz-adv-x="658" 
d="M655 0h-575l17 96l541 547h-434l17 97h563l-17 -97l-540 -547h445zM705 943l-162 -137h-66l-112 137l63 53l96 -112l137 112z" />
    <glyph glyph-name="zcaron" unicode="&#x17e;" horiz-adv-x="476" 
d="M476 0h-376l16 88l305 296h-253l16 91h376l-16 -88l-304 -297h252zM577 678l-162 -137h-66l-112 137l63 53l96 -112l137 112z" />
    <glyph glyph-name="florin" unicode="&#x192;" horiz-adv-x="308" 
d="M-26 -185l15 86q14 0 26 2q26 4 40 18t20 48l73 415h-72l16 91h73l12 69q2 7 4.5 21t3.5 21q33 130 160 136q20 1 48 -3l-15 -86q-21 0 -29 -2q-40 -7 -54 -26t-23 -71l-10 -59h91l-16 -91h-92l-75 -425q-22 -120 -132 -141q-33 -6 -64 -3z" />
    <glyph glyph-name="circumflex" unicode="&#x2c6;" horiz-adv-x="440" 
d="M650 594l-63 -53l-96 112l-137 -112l-44 53l162 137h66z" />
    <glyph glyph-name="caron" unicode="&#x2c7;" horiz-adv-x="440" 
d="M680 678l-162 -137h-66l-112 137l63 53l96 -112l137 112z" />
    <glyph glyph-name="breve" unicode="&#x2d8;" horiz-adv-x="420" 
d="M580 663h62q-10 -53 -50 -87.5t-105 -34.5q-66 0 -94 34.5t-18 87.5h62q-5 -26 10.5 -41t50.5 -15q72 0 82 56z" />
    <glyph glyph-name="dotaccent" unicode="&#x2d9;" horiz-adv-x="223" 
d="M362 541q-23 0 -37.5 15t-14.5 38q0 29 22 49.5t52 20.5q23 0 37 -14.5t14 -36.5q0 -30 -21.5 -51t-51.5 -21z" />
    <glyph glyph-name="ring" unicode="&#x2da;" horiz-adv-x="313" 
d="M526 617q0 -49 -39 -85t-88 -36q-38 0 -63.5 26.5t-25.5 64.5q0 48 38.5 85t87.5 37q39 0 64.5 -26.5t25.5 -65.5zM463 609q0 16 -10.5 27t-26.5 11q-21 0 -37.5 -15.5t-16.5 -36.5q0 -16 10.5 -27t27.5 -11q20 0 36.5 15t16.5 37z" />
    <glyph glyph-name="ogonek" unicode="&#x2db;" horiz-adv-x="248" 
d="M255 -126l-10 -56q-33 -15 -64 -15q-39 0 -65 21.5t-26 60.5q0 63 58 115h59q-43 -49 -43 -86q0 -21 13 -35t36 -14q24 0 42 9z" />
    <glyph glyph-name="tilde" unicode="&#x2dc;" horiz-adv-x="457" 
d="M641 659l30 -65q-58 -53 -114 -53q-29 0 -72 20.5t-64 20.5q-32 0 -69 -30l-34 67q60 48 115 48q30 0 72 -20.5t62 -20.5q35 0 74 33z" />
    <glyph glyph-name="hungarumlaut" unicode="&#x2dd;" horiz-adv-x="554" 
d="M565 684l-208 -150l-45 65l205 154zM781 684l-208 -150l-45 65l205 154z" />
    <glyph glyph-name="endash" unicode="&#x2013;" horiz-adv-x="579" 
d="M656 224h-544l16 92h544z" />
    <glyph glyph-name="emdash" unicode="&#x2014;" horiz-adv-x="1024" 
d="M1101 224h-989l16 92h989z" />
    <glyph glyph-name="quoteleft" unicode="&#x2018;" horiz-adv-x="224" 
d="M439 741l-9 -51q-20 -3 -41 -22t-27 -45q3 1 11 1q21 0 35 -15t14 -37q0 -29 -22.5 -50t-52.5 -21q-51 0 -51 64q0 59 42.5 116.5t100.5 59.5z" />
    <glyph glyph-name="quoteright" unicode="&#x2019;" horiz-adv-x="224" 
d="M304 505l9 51q20 3 41 22t28 45q-3 -1 -11 -1q-21 0 -35.5 15t-14.5 37q0 29 22 50t53 21q25 0 38.5 -17.5t13.5 -47.5q0 -59 -43 -116t-101 -59z" />
    <glyph glyph-name="quotesinglbase" unicode="&#x201a;" horiz-adv-x="224" 
d="M82 -122l9 50q20 3 41 22t28 45q-4 -1 -12 -1q-21 0 -35 15t-14 37q0 29 22 50t53 21q51 0 51 -65q0 -58 -42.5 -115.5t-100.5 -58.5z" />
    <glyph glyph-name="quotedblleft" unicode="&#x201c;" horiz-adv-x="399" 
d="M615 741l-9 -51q-21 -3 -42 -22t-27 -45q3 1 11 1q21 0 35 -15t14 -37q0 -29 -22 -50t-52 -21q-25 0 -38.5 17.5t-13.5 47.5q0 59 42.5 116t101.5 59zM440 741l-9 -51q-21 -3 -42 -22t-27 -45q3 1 11 1q21 0 35 -15t14 -37q0 -29 -21.5 -50t-52.5 -21q-25 0 -38.5 17.5
t-13.5 47.5q0 59 42.5 116t101.5 59z" />
    <glyph glyph-name="quotedblright" unicode="&#x201d;" horiz-adv-x="399" 
d="M304 506l9 51q20 3 41 22t28 45q-3 -1 -11 -1q-22 0 -36 14.5t-14 37.5q0 29 22 50t52 21q26 0 39.5 -17.5t13.5 -47.5q0 -58 -43 -115.5t-101 -59.5zM479 506l9 51q20 3 41 22t28 45q-3 -1 -11 -1q-22 0 -36 14.5t-14 37.5q0 29 22 50t52 21q26 0 39.5 -17.5t13.5 -47.5
q0 -58 -43 -115.5t-101 -59.5z" />
    <glyph glyph-name="quotedblbase" unicode="&#x201e;" horiz-adv-x="399" 
d="M82 -123l9 51q20 3 41 22t28 45q-3 -1 -11 -1q-22 0 -36 14.5t-14 37.5q0 29 22 50t52 21q26 0 39.5 -18t13.5 -47q0 -58 -43 -115.5t-101 -59.5zM257 -123l9 51q20 3 41 22t28 45q-3 -1 -11 -1q-22 0 -36 14.5t-14 37.5q0 29 22 50t52 21q26 0 39.5 -17.5t13.5 -47.5
q0 -58 -43 -115.5t-101 -59.5z" />
    <glyph glyph-name="dagger" unicode="&#x2020;" horiz-adv-x="550" 
d="M403 -253h-100l121 686h-178l16 89h178l38 218h100l-38 -218h178l-16 -89h-178z" />
    <glyph glyph-name="daggerdbl" unicode="&#x2021;" horiz-adv-x="560" 
d="M339 -253h-101l47 265h-177l16 88h177l63 362h-177l16 89h177l33 189h101l-33 -189h177l-16 -89h-177l-63 -362h177l-16 -88h-177z" />
    <glyph glyph-name="bullet" unicode="&#x2022;" horiz-adv-x="480" 
d="M416 209q-60 0 -99 42t-39 102q0 76 60.5 133.5t137.5 57.5q61 0 99 -42t38 -101q0 -76 -60 -134t-137 -58z" />
    <glyph glyph-name="ellipsis" unicode="&#x2026;" horiz-adv-x="970" 
d="M270 -6q-23 0 -37.5 15t-14.5 38q0 29 22 49.5t52 20.5q23 0 37 -14.5t14 -36.5q0 -30 -21.5 -51t-51.5 -21zM593 -6q-23 0 -37.5 15t-14.5 38q0 29 22 49.5t52 20.5q23 0 37.5 -14.5t14.5 -37.5q0 -29 -22 -50t-52 -21zM917 -6q-23 0 -37.5 15t-14.5 38q0 29 22 49.5
t52 20.5q23 0 37 -14.5t14 -36.5q0 -30 -21.5 -51t-51.5 -21z" />
    <glyph glyph-name="perthousand" unicode="&#x2030;" horiz-adv-x="1321" 
d="M1043 199q0 -85 -69 -149t-156 -64q-68 0 -113.5 46.5t-45.5 114.5q0 85 69 149t156 64q68 0 113.5 -46.5t45.5 -114.5zM832 67q49 0 86.5 36.5t37.5 85.5q0 37 -24.5 62.5t-62.5 25.5q-49 0 -86 -35.5t-37 -84.5q0 -38 24 -64t62 -26zM680 596q0 -85 -69 -149t-156 -64
q-68 0 -113.5 46.5t-45.5 114.5q0 85 69 149t156 64q68 0 113.5 -46.5t45.5 -114.5zM469 465q49 0 86.5 36.5t37.5 84.5q0 38 -24.5 63.5t-62.5 25.5q-49 0 -86 -36t-37 -85q0 -38 24 -63.5t62 -25.5zM445 0h-87l537 740h87zM1453 199q0 -85 -69 -149t-156 -64
q-68 0 -113.5 46.5t-45.5 114.5q0 85 69 149t156 64q68 0 113.5 -46.5t45.5 -114.5zM1242 67q49 0 86.5 36.5t37.5 85.5q0 37 -24.5 62.5t-62.5 25.5q-49 0 -86 -35.5t-37 -84.5q0 -38 24 -64t62 -26z" />
    <glyph glyph-name="guilsinglleft" unicode="&#x2039;" horiz-adv-x="315" 
d="M370 52h-108l-92 201l162 199h106l-159 -199z" />
    <glyph glyph-name="guilsinglright" unicode="&#x203a;" horiz-adv-x="315" 
d="M206 52h-108l161 201l-88 199h106l91 -199z" />
    <glyph glyph-name="fraction" unicode="&#x2044;" horiz-adv-x="181" 
d="M-224 0h-82l536 740h82z" />
    <glyph glyph-name="Euro" unicode="&#x20ac;" horiz-adv-x="591" 
d="M519 177h97q-21 -84 -86.5 -137t-161.5 -53q-112 0 -159 73t-33 193h-86l43 78h57l12 70h-76l43 78h47q22 116 97.5 195t189.5 79q91 0 141 -51.5t41 -139.5h-100q1 47 -24.5 72t-73.5 25q-68 0 -110.5 -49.5t-60.5 -130.5h268l-43 -78h-239l-12 -70h225l-43 -78h-195
q-20 -173 106 -173q51 0 87.5 26t48.5 71z" />
    <glyph glyph-name="trademark" unicode="&#x2122;" horiz-adv-x="780" 
d="M946 388h-74l43 244l-100 -105h-32l-62 104l-43 -243h-73l62 352h75l73 -126l124 126h69zM447 388h-73l50 284h-88l12 68h248l-12 -68h-87z" />
    <glyph glyph-name="minus" unicode="&#x2212;" horiz-adv-x="630" 
d="M736 299h-530l16 93h530z" />
    <glyph glyph-name="fi" unicode="&#xfb01;" horiz-adv-x="574" 
d="M578 0h-96l68 384h-213l-68 -384h-97l68 384h-70l16 91h70l19 110q13 72 56 113.5t118 41.5q42 0 77 -11l-15 -86q-23 7 -56 7q-35 0 -56 -18.5t-29 -61.5l-17 -95h309zM631 569q-23 0 -37.5 15t-14.5 38q0 29 22 50t51 21q23 0 38 -15t15 -38q0 -29 -22 -50t-52 -21z
" />
    <glyph glyph-name="fl" unicode="&#xfb02;" horiz-adv-x="587" 
d="M675 78l-15 -84q-28 -7 -54 -7q-59 0 -86 34.5t-16 99.5l46 263h-213l-68 -384h-97l68 384h-70l16 91h70l19 110q13 72 56 113.5t118 41.5q42 0 77 -11l-15 -86q-23 7 -56 7q-35 0 -56 -18.5t-29 -61.5l-17 -95h213l47 265h96l-104 -589q-7 -40 2.5 -57t43.5 -17
q15 0 24 1z" />
    <glyph glyph-name="glyph26" horiz-adv-x="995" 
d="M840 0h-104l-54 258l-144 -258h-104l-154 740h112l116 -613l145 267l-71 346h112l39 -201l109 201h111l-194 -345l51 -268l334 613h111z" />
    <glyph glyph-name="glyph41" horiz-adv-x="504" 
d="M310 29q79 0 124 -36t45 -90q0 -66 -61 -113.5t-154 -47.5q-75 0 -117.5 35t-42.5 89q0 60 52 108q-28 22 -28 64q0 62 58 96q-36 46 -36 122q0 94 71 161t169 67q30 0 57 -9h151l-13 -76h-48q23 -36 23 -90q0 -95 -72 -162.5t-167 -67.5q-19 0 -40.5 4t-27.5 4
q-21 0 -32.5 -11.5t-11.5 -26.5q0 -12 8.5 -20t21.5 -8q35 8 71 8zM334 166q56 0 93.5 40.5t37.5 95.5q0 42 -24.5 69t-66.5 27q-55 0 -93 -39.5t-38 -95.5q0 -43 24.5 -70t66.5 -27zM387 -107q0 25 -22.5 41t-64.5 16q-52 0 -78.5 -21.5t-26.5 -52.5q0 -24 20.5 -39
t62.5 -15q51 0 80 20.5t29 50.5z" />
    <glyph glyph-name="glyph42" horiz-adv-x="537" 
d="M260 -258q-78 0 -130 47.5t-52 117.5q0 56 35 103.5t95 75.5q-36 24 -56 63.5t-20 85.5q0 99 79 174t180 75q34 0 61 -9h163l-14 -76h-53q28 -44 28 -104q0 -64 -38.5 -120t-103.5 -90q76 -45 76 -131q0 -85 -76.5 -148.5t-173.5 -63.5zM329 130q59 0 104.5 45t45.5 106
q0 48 -29 80t-74 32q-59 0 -104.5 -46t-45.5 -107q0 -47 28.5 -78.5t74.5 -31.5zM313 39q-56 0 -97 -33.5t-41 -84.5q0 -39 27.5 -64t73.5 -25q59 0 98.5 35t39.5 84q0 39 -28 63.5t-73 24.5z" />
    <glyph glyph-name="glyph71" horiz-adv-x="650" 
d="M754 343h-84l-18 -104q-21 -119 -94.5 -185.5t-182.5 -66.5q-94 0 -146.5 53t-52.5 136q0 75 38.5 132t116.5 85q-34 18 -53.5 54t-19.5 81q0 97 74.5 161t170.5 64q82 0 131 -52l-66 -75q-30 36 -81 36q-54 0 -91 -36t-37 -89q0 -43 28 -70.5t77 -27.5h121l21 119h102
l-21 -119h84zM548 231l20 112h-118q-81 0 -125.5 -41.5t-44.5 -106.5q0 -50 30.5 -82.5t85.5 -32.5q56 0 97 36t55 115z" />
    <glyph glyph-name="glyph72" horiz-adv-x="623" 
d="M606 324l91 51q17 -40 17 -94q0 -118 -93.5 -206t-214.5 -88q-95 0 -156.5 63.5t-61.5 156.5q0 74 40.5 138.5t107.5 106.5q-21 35 -21 86q0 87 69 151t157 64q49 0 87 -23t57 -62l-87 -52q-20 45 -72 45q-46 0 -78.5 -33.5t-32.5 -78.5q0 -34 20 -57t56 -23q63 0 99 61
l71 -51q-31 -46 -81.5 -74t-105.5 -28q-41 0 -71 15q-51 -25 -83 -72t-32 -101q0 -59 37.5 -99.5t96.5 -40.5q76 0 134.5 57t58.5 132q0 33 -9 56z" />
    <glyph glyph-name="glyph84" horiz-adv-x="580" 
d="M664 270q0 -113 -92 -198t-207 -85q-91 0 -150 61.5t-59 151.5q0 113 90.5 198.5t206.5 85.5q91 0 151 -62t60 -152zM567 259q0 56 -36.5 95t-92.5 39q-74 0 -130 -55.5t-56 -126.5q0 -56 36.5 -95t93.5 -39q73 0 129 55.5t56 126.5z" />
    <glyph glyph-name="glyph85" horiz-adv-x="305" 
d="M303 0h-97l68 386h-108l16 89h205z" />
    <glyph glyph-name="glyph86" horiz-adv-x="414" 
d="M422 0h-342l15 85q160 79 225 143.5t65 111.5q0 25 -15.5 41.5t-45.5 16.5q-35 0 -63 -21.5t-38 -64.5h-89q16 78 70.5 125t135.5 47q67 0 103 -34t36 -91q0 -169 -273 -278l231 3z" />
    <glyph glyph-name="glyph87" horiz-adv-x="509" 
d="M315 130h-29l15 89h31q46 0 76 33t30 74q0 31 -20 51.5t-54 20.5q-44 0 -73.5 -30t-36.5 -71h-95q14 79 74 133t144 54q71 0 114.5 -41.5t43.5 -104.5q0 -51 -28 -94.5t-79 -67.5q73 -36 73 -128q0 -98 -74.5 -162t-172.5 -64q-89 0 -135.5 56.5t-34.5 139.5h95
q-5 -48 19.5 -78.5t74.5 -30.5q57 0 94 36t37 89q0 40 -24 68t-65 28z" />
    <glyph glyph-name="glyph88" horiz-adv-x="522" 
d="M410 -168h-94l30 168h-276l16 93l344 384h94l-68 -388h77l-16 -89h-77zM360 89l43 245h-1l-213 -245h171z" />
    <glyph glyph-name="glyph89" horiz-adv-x="517" 
d="M515 386h-207l-47 -124q41 21 92 21q83 0 128 -54t45 -132q0 -108 -80.5 -191.5t-192.5 -83.5q-93 0 -148 62.5t-43 154.5h88q-5 -57 24.5 -92.5t87.5 -35.5q71 0 119 48.5t48 117.5q0 51 -30 83.5t-81 32.5q-70 0 -119 -47l-61 42l99 287h293z" />
    <glyph glyph-name="glyph90" horiz-adv-x="529" 
d="M543 662l-185 -247q33 13 63 13q77 0 128.5 -55.5t51.5 -135.5q0 -99 -82 -174.5t-185 -75.5q-81 0 -134.5 55.5t-53.5 135.5q0 47 16.5 85.5t69.5 115t207 283.5h104zM505 227q0 48 -30.5 80.5t-77.5 32.5q-61 0 -108 -46t-47 -105q0 -47 30.5 -79.5t78.5 -32.5
q61 0 107.5 45.5t46.5 104.5z" />
    <glyph glyph-name="glyph91" horiz-adv-x="418" 
d="M162 -168h-100l336 554h-294l15 89h393l-15 -88z" />
    <glyph glyph-name="glyph92" horiz-adv-x="545" 
d="M555 404q67 -57 67 -155q0 -105 -84.5 -183.5t-192.5 -78.5q-85 0 -140 57t-55 140q0 66 36 123.5t96 96.5q-19 31 -19 76q0 78 62 135.5t141 57.5q63 0 103.5 -41.5t40.5 -103.5q0 -67 -55 -124zM527 238q0 51 -32.5 86t-83.5 35q-64 0 -115 -50t-51 -112
q0 -50 32.5 -85t83.5 -35q66 0 116 49t50 112zM477 442q39 28 39 73q0 30 -18 49.5t-48 19.5q-37 0 -65 -27.5t-28 -65.5q0 -30 16 -49q30 7 52 7q24 0 52 -7z" />
    <glyph glyph-name="glyph93" horiz-adv-x="529" 
d="M328 -191h-104l186 247q-32 -14 -64 -14q-77 0 -128.5 55.5t-51.5 134.5q0 100 82 176t184 76q82 0 135.5 -55.5t53.5 -135.5q0 -66 -41 -133.5t-252 -350.5zM416 394q-61 0 -108 -46t-47 -105q0 -47 31 -79.5t78 -32.5q61 0 108 46t47 105q0 47 -30.5 79.5t-78.5 32.5z
" />
    </font>
</defs>
</svg>
