<svg xmlns="http://www.w3.org/2000/svg" width="61.212" height="81.604" viewBox="0 0 61.212 81.604">
  <path id="map-marker" d="M30.359,0c12.359.425,21.533,5.9,27.1,16.649,5.606,10.83,4.927,21.618-2.124,31.684-7.348,10.49-14.865,20.853-22.255,31.3-1.826,2.591-3.228,2.633-5.054.085q-10.958-15.353-22-30.707A30.684,30.684,0,0,1,25.262.51C26.961.17,28.745.17,30.359,0ZM43.652,30.707A13.189,13.189,0,1,0,30.486,43.958,13.115,13.115,0,0,0,43.652,30.707Z" transform="translate(0.014)" fill="#8c704e"/>
</svg>
